<?xml version="1.0" encoding="UTF-8" standalone="no"?>
<svg
   xmlns:dc="http://purl.org/dc/elements/1.1/"
   xmlns:cc="http://creativecommons.org/ns#"
   xmlns:rdf="http://www.w3.org/1999/02/22-rdf-syntax-ns#"
   xmlns:svg="http://www.w3.org/2000/svg"
   xmlns="http://www.w3.org/2000/svg"
   xmlns:sodipodi="http://sodipodi.sourceforge.net/DTD/sodipodi-0.dtd"
   xmlns:inkscape="http://www.inkscape.org/namespaces/inkscape"
   viewBox="0.0 0.0 348.0 348.0"
   fill="none"
   version="1.1"
   id="svg6"
   sodipodi:docname="Module Name.svg"
   inkscape:version="0.92.5 (2060ec1f9f, 2020-04-08)">
  <metadata
     id="metadata12">
    <rdf:RDF>
      <cc:Work
         rdf:about="">
        <dc:format>image/svg+xml</dc:format>
        <dc:type
           rdf:resource="http://purl.org/dc/dcmitype/StillImage" />
      </cc:Work>
    </rdf:RDF>
  </metadata>
  <defs
     id="defs10" />
  <sodipodi:namedview
     pagecolor="#ffffff"
     bordercolor="#666666"
     borderopacity="1"
     objecttolerance="10"
     gridtolerance="10"
     guidetolerance="10"
     inkscape:pageopacity="0"
     inkscape:pageshadow="2"
     inkscape:window-width="1920"
     inkscape:window-height="1017"
     id="namedview8"
     showgrid="false"
     inkscape:zoom="1.9181287"
     inkscape:cx="235.04531"
     inkscape:cy="144.74501"
     inkscape:window-x="-8"
     inkscape:window-y="-8"
     inkscape:window-maximized="1"
     inkscape:current-layer="svg6" />
  <path
     d="M5.079 5.776h336.913v337.67H5.08z"
     stroke-width="2"
     stroke="#000"
     id="path2" />
  <path
     d="M282.734 40.554c0-8.376 6.966-15.165 15.56-15.165 4.126 0 8.084 1.597 11.001 4.441 2.918 2.844 4.558 6.702 4.558 10.724 0 8.376-6.966 15.165-15.56 15.165-8.593 0-15.559-6.79-15.559-15.165z"
     stroke-width="2"
     stroke="#000"
     id="path4" />
  <path
     inkscape:connector-curvature="0"
     style="stroke:#000000;stroke-width:1.22242057"
     d="m 34.61121,238 c 0,-5.18565 4.203369,-9.38878 9.389091,-9.38878 2.489678,0 4.877983,0.98871 6.638136,2.74946 1.760757,1.76074 2.750353,4.14926 2.750353,6.63932 0,5.18566 -4.203369,9.38879 -9.389092,9.38879 -5.185119,0 -9.388488,-4.20374 -9.388488,-9.38879 z"
     id="path4-7" />
  <path
     inkscape:connector-curvature="0"
     style="stroke:#000000;stroke-width:1.22242224"
     d="m 98.01781,238 c 0,-5.18566 4.20331,-9.38879 9.38902,-9.38879 2.48974,0 4.87797,0.98872 6.63826,2.74946 1.76076,1.76075 2.7503,4.14928 2.7503,6.63933 0,5.18566 -4.20331,9.38879 -9.38902,9.38879 -5.18525,0 -9.38856,-4.20375 -9.38856,-9.38879 z"
     id="path4-1" />
  <path
     inkscape:connector-curvature="0"
     style="stroke:#000000;stroke-width:1.22242224"
     d="m 164.61121,238 c 0,-5.18572 4.20337,-9.38879 9.3891,-9.38879 2.48967,0 4.87797,0.98862 6.63813,2.74938 1.76075,1.76075 2.75035,4.14933 2.75035,6.63941 0,5.18571 -4.20337,9.38879 -9.3891,9.38879 -5.18511,0 -9.38848,-4.20377 -9.38848,-9.38879 z"
     id="path4-17" />
  <path
     inkscape:connector-curvature="0"
     style="stroke:#000000;stroke-width:1.2224201"
     d="m 227.23814,237.99999 c 0,-5.18566 4.20338,-9.3888 9.38909,-9.3888 2.48968,0 4.87799,0.98873 6.63813,2.74946 1.76076,1.76075 2.75036,4.14929 2.75036,6.63934 0,5.18566 -4.20337,9.3888 -9.38909,9.3888 -5.18511,0 -9.38849,-4.20376 -9.38849,-9.3888 z"
     id="path4-8" />
  <path
     inkscape:connector-curvature="0"
     style="stroke:#000000;stroke-width:1.22242045"
     d="m 291.61121,238 c 0,-5.18566 4.20337,-9.38879 9.3891,-9.38879 2.48967,0 4.87797,0.98872 6.63813,2.74946 1.76076,1.76075 2.75035,4.14927 2.75035,6.63933 0,5.18566 -4.20337,9.38879 -9.3891,9.38879 -5.18511,0 -9.38848,-4.20375 -9.38848,-9.38879 z"
     id="path4-9" />
  <path
     style="fill:#000023;fill-opacity:1;stroke:#000000;stroke-width:1;stroke-miterlimit:4;stroke-dasharray:none;stroke-opacity:0;paint-order:markers stroke fill"
     d="M 33.177967,84.788132 H 312.61016 V 187.27118 H 33.177967 Z"
     id="rect53" />
  <g
     aria-label="88:88"
     style="font-style:normal;font-variant:normal;font-weight:normal;font-stretch:normal;font-size:53.33333206px;line-height:1.25;font-family:'DSEG7 Modern';-inkscape-font-specification:'DSEG7 Modern, Normal';font-variant-ligatures:normal;font-variant-caps:normal;font-variant-numeric:normal;font-feature-settings:normal;text-align:start;letter-spacing:0px;word-spacing:0px;writing-mode:lr-tb;text-anchor:start;fill:#ffffff;fill-opacity:1;stroke:none"
     id="text57">
    <path
       d="m 57.928703,140.97525 -2.826666,-1.6 v -24.10666 -0.10667 l 4.959999,2.88 v 19.25333 z m 26.4,-2.98666 -2.453334,4.21333 H 60.062036 l -1.226666,-0.69333 2.453333,-4.21334 h 21.813333 z m 0.906666,0.53333 2.826667,1.6 v 24.10667 0.10666 l -4.96,-2.88 v -19.25333 z m -4.32,22.93333 6.826667,3.94667 q -0.64,1.01333 -1.866667,1.01333 H 58.462037 l 2.826666,-4.96 z m -23.733332,4.96 q -0.853334,-0.0533 -1.493334,-0.64 -0.586666,-0.64 -0.586666,-1.54666 v -23.57334 l 4.959999,2.82667 v 17.97333 z m 29.866666,-53.01333 q 1.013333,0.64 1.013333,1.86667 v 23.57333 l -4.96,-2.82667 v -15.78666 z m -24.8,4.64 -6.826666,-3.94667 q 0.64,-1.01333 1.866666,-1.01333 h 28.586666 0.106667 l -2.88,4.96 z"
       style=""
       id="path162" />
    <path
       d="m 101.47037,140.97525 -2.826669,-1.6 v -24.10666 -0.10667 l 4.959999,2.88 v 19.25333 z m 26.4,-2.98666 -2.45334,4.21333 H 103.6037 l -1.22667,-0.69333 2.45334,-4.21334 h 21.81333 z m 0.90666,0.53333 2.82667,1.6 v 24.10667 0.10666 l -4.96,-2.88 v -19.25333 z m -4.32,22.93333 6.82667,3.94667 q -0.64,1.01333 -1.86667,1.01333 H 102.0037 l 2.82667,-4.96 z m -23.73333,4.96 q -0.853333,-0.0533 -1.493333,-0.64 -0.586666,-0.64 -0.586666,-1.54666 v -23.57334 l 4.959999,2.82667 v 17.97333 z m 29.86667,-53.01333 q 1.01333,0.64 1.01333,1.86667 v 23.57333 l -4.96,-2.82667 v -15.78666 z m -24.8,4.64 -6.826669,-3.94667 q 0.64,-1.01333 1.866669,-1.01333 h 28.58666 0.10667 l -2.88,4.96 z"
       style=""
       id="path164" />
    <path
       d="m 145.2787,128.17525 q 0.26666,0.64 0.26666,1.28 0,0.64 -0.26666,1.28 -0.26667,0.64 -0.69334,1.06667 -0.42666,0.42667 -1.06666,0.69333 -0.64,0.26667 -1.28,0.26667 -0.64,0 -1.28,-0.26667 -0.64,-0.26666 -1.06667,-0.69333 -0.42667,-0.42667 -0.69333,-1.06667 -0.26667,-0.64 -0.26667,-1.28 0,-0.64 0.26667,-1.28 0.26666,-0.58666 0.69333,-1.01333 0.53333,-0.48 1.06667,-0.74667 0.48,-0.21333 1.28,-0.21333 0.8,0 1.28,0.21333 0.58666,0.26667 1.06666,0.74667 0.42667,0.42667 0.69334,1.01333 z m 0,21.97334 q 0.26666,0.64 0.26666,1.28 0,0.64 -0.26666,1.28 -0.26667,0.64 -0.69334,1.06666 -0.42666,0.42667 -1.06666,0.69334 -0.64,0.26666 -1.28,0.26666 -0.64,0 -1.28,-0.26666 -0.64,-0.26667 -1.06667,-0.69334 -0.42667,-0.42666 -0.69333,-1.06666 -0.26667,-0.64 -0.26667,-1.28 0,-0.64 0.26667,-1.28 0.26666,-0.58667 0.69333,-1.01334 0.53333,-0.53333 1.06667,-0.74666 0.48,-0.21334 1.28,-0.21334 0.8,0 1.28,0.21334 0.58666,0.21333 1.06666,0.74666 0.42667,0.42667 0.69334,1.01334 z"
       style=""
       id="path166" />
    <path
       d="m 155.63703,140.97525 -2.82667,-1.6 v -24.10666 -0.10667 l 4.96,2.88 v 19.25333 z m 26.4,-2.98666 -2.45333,4.21333 h -21.81334 l -1.22666,-0.69333 2.45333,-4.21334 h 21.81333 z m 0.90667,0.53333 2.82666,1.6 v 24.10667 0.10666 l -4.96,-2.88 v -19.25333 z m -4.32,22.93333 6.82666,3.94667 q -0.64,1.01333 -1.86666,1.01333 h -27.41334 l 2.82667,-4.96 z m -23.73334,4.96 q -0.85333,-0.0533 -1.49333,-0.64 -0.58667,-0.64 -0.58667,-1.54666 v -23.57334 l 4.96,2.82667 v 17.97333 z m 29.86667,-53.01333 q 1.01333,0.64 1.01333,1.86667 v 23.57333 l -4.96,-2.82667 v -15.78666 z m -24.8,4.64 -6.82667,-3.94667 q 0.64,-1.01333 1.86667,-1.01333 h 28.58667 0.10666 l -2.88,4.96 z"
       style=""
       id="path168" />
    <path
       d="m 199.1787,140.97525 -2.82666,-1.6 v -24.10666 -0.10667 l 4.96,2.88 v 19.25333 z m 26.4,-2.98666 -2.45333,4.21333 h -21.81333 l -1.22667,-0.69333 2.45333,-4.21334 h 21.81334 z m 0.90667,0.53333 2.82667,1.6 v 24.10667 0.10666 l -4.96,-2.88 v -19.25333 z m -4.32,22.93333 6.82667,3.94667 q -0.64,1.01333 -1.86667,1.01333 h -27.41333 l 2.82666,-4.96 z m -23.73333,4.96 q -0.85334,-0.0533 -1.49334,-0.64 -0.58666,-0.64 -0.58666,-1.54666 v -23.57334 l 4.96,2.82667 v 17.97333 z m 29.86666,-53.01333 q 1.01334,0.64 1.01334,1.86667 v 23.57333 l -4.96,-2.82667 v -15.78666 z m -24.8,4.64 -6.82666,-3.94667 q 0.64,-1.01333 1.86666,-1.01333 h 28.58667 0.10667 l -2.88,4.96 z"
       style=""
       id="path170" />
  </g>
  <g
     aria-label="88"
     style="font-style:normal;font-variant:normal;font-weight:normal;font-stretch:normal;font-size:26.66666603px;line-height:1.25;font-family:'DSEG7 Modern';-inkscape-font-specification:'DSEG7 Modern, Normal';font-variant-ligatures:normal;font-variant-caps:normal;font-variant-numeric:normal;font-feature-settings:normal;text-align:start;letter-spacing:0px;word-spacing:0px;writing-mode:lr-tb;text-anchor:start;fill:#ffffff;fill-opacity:1;stroke:none"
     id="text57-6">
    <path
       d="m 243.35036,153.51415 -1.41333,-0.8 v -12.05334 -0.0533 l 2.48,1.44 v 9.62667 z m 13.2,-1.49334 -1.22667,2.10667 h -10.90666 l -0.61334,-0.34667 1.22667,-2.10666 h 10.90667 z m 0.45333,0.26667 1.41334,0.8 v 12.05333 0.0533 l -2.48,-1.44 v -9.62667 z m -2.16,11.46667 3.41334,1.97333 q -0.32,0.50667 -0.93334,0.50667 h -13.70666 l 1.41333,-2.48 z m -11.86666,2.48 q -0.42667,-0.0267 -0.74667,-0.32 -0.29333,-0.32 -0.29333,-0.77334 v -11.78666 l 2.48,1.41333 v 8.98667 z m 14.93333,-26.50667 q 0.50667,0.32 0.50667,0.93333 v 11.78667 l -2.48,-1.41333 v -7.89334 z m -12.4,2.32 -3.41333,-1.97333 q 0.32,-0.50667 0.93333,-0.50667 h 14.29333 0.0533 l -1.44,2.48 z"
       style=""
       id="path173" />
    <path
       d="m 265.12119,153.51415 -1.41333,-0.8 v -12.05334 -0.0533 l 2.48,1.44 v 9.62667 z m 13.2,-1.49334 -1.22666,2.10667 h -10.90667 l -0.61333,-0.34667 1.22666,-2.10666 h 10.90667 z m 0.45334,0.26667 1.41333,0.8 v 12.05333 0.0533 l -2.48,-1.44 v -9.62667 z m -2.16,11.46667 3.41333,1.97333 q -0.32,0.50667 -0.93333,0.50667 h -13.70667 l 1.41333,-2.48 z m -11.86667,2.48 q -0.42667,-0.0267 -0.74667,-0.32 -0.29333,-0.32 -0.29333,-0.77334 v -11.78666 l 2.48,1.41333 v 8.98667 z m 14.93333,-26.50667 q 0.50667,0.32 0.50667,0.93333 v 11.78667 l -2.48,-1.41333 v -7.89334 z m -12.4,2.32 -3.41333,-1.97333 q 0.32,-0.50667 0.93333,-0.50667 h 14.29334 0.0533 l -1.44,2.48 z"
       style=""
       id="path175" />
  </g>
  <g
     aria-label="°E"
     style="font-style:normal;font-variant:normal;font-weight:normal;font-stretch:normal;font-size:13.33333302px;line-height:1.25;font-family:'DSEG14 Classic';-inkscape-font-specification:'DSEG14 Classic, Normal';font-variant-ligatures:normal;font-variant-caps:normal;font-variant-numeric:normal;font-feature-settings:normal;text-align:start;letter-spacing:0px;word-spacing:0px;writing-mode:lr-tb;text-anchor:start;fill:#ffffff;fill-opacity:1;stroke:none"
     id="text57-6-5">
    <path
       d="m 285.09311,144.33956 -0.0533,0.0667 h -0.77333 v -5.52 l 0.41333,-0.41333 1.24,1.24 v 2.18667 1.44 0.18666 z m 5.54666,-0.62667 0.84,0.84 -0.81333,0.81333 h -0.37333 -0.48 -0.78667 l -0.48,-0.82666 0.48,-0.82667 h 0.78667 0.49333 z m 1.45334,-5.24 0.41333,0.41333 v 5.52 h -0.77333 l -0.0533,-0.0533 -0.82666,-0.81333 v -0.14667 -1.49333 -2.10667 -0.08 z m -7.22667,-0.18667 0.41333,-0.41333 h 2.28 1.65334 2.28 l 0.41333,0.41333 -1.24,1.24 h -0.33333 -1.12 -1.65334 -1.12 -0.25333 -0.08 z m 2.88,5.42667 0.48,0.82667 -0.48,0.82666 h -0.78667 -0.49333 -0.36 l -0.82667,-0.82666 0.82667,-0.82667 h 0.36 0.49333 z"
       style=""
       id="path178" />
    <path
       d="m 302.15186,143.92622 0.62666,0.62667 -0.62666,0.61333 v -0.0133 h -0.24 -0.0267 -1.72 -0.28 -0.0933 l -0.36,-0.61333 0.36,-0.61334 h 0.0933 0.28 0.17333 z m -6.4,0.61334 0.64,-0.62667 v 0.0133 h 1.81333 0.54667 l 0.36,0.61334 -0.36,0.61333 h -2.09334 -0.04 -0.22666 v 0.0133 z m 0,-6.25334 0.41333,-0.41333 h 6.21333 l 0.41334,0.41333 -0.82667,0.82667 h -0.26667 -1.81333 -1.22667 -1.81333 -0.26667 z m 7.04,12.50667 -0.41334,0.41333 h -6.21333 l -0.41333,-0.41333 0.82666,-0.82667 h 0.26667 1.81333 1.22667 1.81333 0.26667 z m -7.22667,-6.45333 -0.0533,0.0667 h -0.36 v -5.52 l 0.41333,-0.41333 0.82667,0.82667 v 0.08 1.4 2.74666 z m 0,6.26666 -0.41333,-0.41333 v -5.52 h 0.36 l 0.0533,0.0667 0.82667,0.81333 v 2.74667 1.4 0.08 z"
       style=""
       id="path180" />
  </g>
  <g
     aria-label="A"
     style="font-style:normal;font-variant:normal;font-weight:normal;font-stretch:normal;font-size:10.66666698px;line-height:1.25;font-family:Arial;-inkscape-font-specification:'Arial, Normal';font-variant-ligatures:normal;font-variant-caps:normal;font-variant-numeric:normal;font-feature-settings:normal;text-align:start;letter-spacing:0px;word-spacing:0px;writing-mode:lr-tb;text-anchor:start;fill:#ffffff;fill-opacity:1;stroke:none"
     id="text125">
    <path
       d="m 36.654999,120.17796 2.932292,-7.63541 h 1.088541 l 3.125,7.63541 h -1.151041 l -0.890625,-2.3125 h -3.192709 l -0.838542,2.3125 z m 2.203125,-3.13541 h 2.588542 l -0.796875,-2.11459 q -0.364584,-0.96354 -0.541667,-1.58333 -0.145833,0.73437 -0.411458,1.45833 z"
       style=""
       id="path183" />
  </g>
  <g
     aria-label="P"
     style="font-style:normal;font-variant:normal;font-weight:normal;font-stretch:normal;font-size:10.66666698px;line-height:1.25;font-family:Arial;-inkscape-font-specification:'Arial, Normal';font-variant-ligatures:normal;font-variant-caps:normal;font-variant-numeric:normal;font-feature-settings:normal;text-align:start;letter-spacing:0px;word-spacing:0px;writing-mode:lr-tb;text-anchor:start;fill:#ffffff;fill-opacity:1;stroke:none"
     id="text131">
    <path
       d="m 37.655001,130.27118 v -7.63542 h 2.880209 q 0.760416,0 1.161458,0.0729 0.5625,0.0937 0.942708,0.35937 0.380209,0.26042 0.609376,0.73438 0.234375,0.47396 0.234375,1.04167 0,0.97395 -0.619792,1.65104 -0.619792,0.67187 -2.239584,0.67187 h -1.958333 v 3.10417 z m 1.010417,-4.00521 h 1.973958 q 0.979167,0 1.390625,-0.36458 0.411459,-0.36459 0.411459,-1.02604 0,-0.47917 -0.244792,-0.81771 -0.239583,-0.34375 -0.635417,-0.45313 -0.255208,-0.0677 -0.942708,-0.0677 h -1.953125 z"
       style=""
       id="path186" />
  </g>
  <g
     aria-label="MODE"
     style="font-style:normal;font-variant:normal;font-weight:normal;font-stretch:condensed;font-size:10.66666698px;line-height:1.25;font-family:Arial;-inkscape-font-specification:'Arial, Condensed';font-variant-ligatures:normal;font-variant-caps:normal;font-variant-numeric:normal;font-feature-settings:normal;text-align:start;letter-spacing:0px;word-spacing:0px;writing-mode:lr-tb;text-anchor:start;fill:#000000;fill-opacity:1;stroke:none"
     id="text135">
    <path
       d="m 31.931529,212.8698 v -7.63542 h 1.244791 l 1.484375,5.40625 0.296876,1.13021 q 0.109375,-0.42188 0.333333,-1.22396 l 1.5,-5.3125 h 1.114583 v 7.63542 h -0.796875 v -6.39063 l -1.822916,6.39063 h -0.744792 l -1.8125,-6.5 v 6.5 z"
       style=""
       id="path189" />
    <path
       d="m 39.014862,209.15105 q 0,-1.95313 0.859375,-3 0.859375,-1.05209 2.140625,-1.05209 0.828126,0 1.510417,0.46875 0.682292,0.46875 1.078125,1.36459 0.401042,0.89062 0.401042,2.125 0,1.69791 -0.770833,2.76562 -0.848959,1.17709 -2.223959,1.17709 -1.385417,0 -2.229167,-1.20834 -0.765625,-1.09375 -0.765625,-2.64062 z m 0.854167,0.0156 q 0,1.41146 0.619792,2.19271 0.625,0.77604 1.515625,0.77604 0.911458,0 1.526042,-0.78646 0.619791,-0.78645 0.619791,-2.3125 0,-0.98437 -0.317708,-1.76041 -0.244792,-0.59375 -0.739583,-0.94792 -0.489584,-0.35938 -1.072917,-0.35938 -0.9375,0 -1.546875,0.78125 -0.604167,0.78125 -0.604167,2.41667 z"
       style=""
       id="path191" />
    <path
       d="m 46.040904,212.8698 v -7.63542 h 2.161458 q 0.802084,0 1.21875,0.14062 0.546876,0.1823 0.947917,0.66667 0.401042,0.48438 0.625,1.22396 0.223959,0.73437 0.223959,1.74479 0,1.29688 -0.380209,2.20313 -0.380208,0.90104 -0.979166,1.28125 -0.593751,0.375 -1.557292,0.375 z m 0.828125,-0.90104 h 1.333333 q 0.807292,0 1.223959,-0.26042 0.416667,-0.26563 0.640625,-0.84896 0.296875,-0.77604 0.296875,-1.85938 0,-1.16145 -0.317708,-1.82291 -0.3125,-0.66667 -0.807292,-0.89063 -0.333334,-0.15104 -1.057292,-0.15104 h -1.3125 z"
       style=""
       id="path193" />
    <path
       d="m 52.389863,212.8698 v -7.63542 h 4.526042 v 0.90104 h -3.697917 v 2.33854 h 3.463542 v 0.89584 h -3.463542 v 2.59896 h 3.84375 v 0.90104 z"
       style=""
       id="path195" />
  </g>
  <g
     aria-label="HOUR"
     style="font-style:normal;font-variant:normal;font-weight:normal;font-stretch:condensed;font-size:10.66666698px;line-height:1.25;font-family:Arial;-inkscape-font-specification:'Arial, Condensed';font-variant-ligatures:normal;font-variant-caps:normal;font-variant-numeric:normal;font-feature-settings:normal;text-align:start;letter-spacing:0px;word-spacing:0px;writing-mode:lr-tb;text-anchor:start;fill:#000000;fill-opacity:1;stroke:none"
     id="text143">
    <path
       d="m 96.248093,212.8698 v -7.63542 h 0.828125 v 3.13542 h 3.255212 v -3.13542 h 0.82812 v 7.63542 h -0.82812 v -3.59896 h -3.255212 v 3.59896 z"
       style=""
       id="path198" />
    <path
       d="m 102.33143,209.15105 q 0,-1.95313 0.85937,-3 0.85938,-1.05209 2.14063,-1.05209 0.82812,0 1.51041,0.46875 0.68229,0.46875 1.07813,1.36459 0.40104,0.89062 0.40104,2.125 0,1.69791 -0.77083,2.76562 -0.84896,1.17709 -2.22396,1.17709 -1.38542,0 -2.22917,-1.20834 -0.76562,-1.09375 -0.76562,-2.64062 z m 0.85416,0.0156 q 0,1.41146 0.61979,2.19271 0.625,0.77604 1.51563,0.77604 0.91146,0 1.52604,-0.78646 0.61979,-0.78645 0.61979,-2.3125 0,-0.98437 -0.31771,-1.76041 -0.24479,-0.59375 -0.73958,-0.94792 -0.48958,-0.35938 -1.07292,-0.35938 -0.9375,0 -1.54687,0.78125 -0.60417,0.78125 -0.60417,2.41667 z"
       style=""
       id="path200" />
    <path
       d="m 113.46684,205.23438 h 0.83334 v 4.41146 q 0,1.10937 -0.21875,1.82292 -0.21355,0.70833 -0.78646,1.11979 -0.56771,0.41146 -1.44792,0.41146 -1.23958,0 -1.85937,-0.73959 -0.61459,-0.73958 -0.61459,-2.61458 v -4.41146 h 0.82813 v 4.40625 q 0,1.03646 0.16146,1.5 0.16145,0.46354 0.52604,0.70833 0.36979,0.23959 0.89583,0.23959 0.88542,0 1.28125,-0.5 0.40104,-0.5 0.40104,-1.94792 z"
       style=""
       id="path202" />
    <path
       d="m 115.68559,212.8698 v -7.63542 h 2.77604 q 0.8698,0 1.28125,0.21354 0.41667,0.21354 0.6823,0.71354 0.26562,0.49479 0.26562,1.15104 0,0.86459 -0.45312,1.40105 -0.44792,0.53645 -1.3073,0.68229 0.34896,0.20833 0.53125,0.42187 0.3698,0.4375 0.65105,0.97396 l 1.09375,2.07813 h -1.04167 l -0.83333,-1.58854 q -0.48438,-0.9323 -0.73438,-1.25521 -0.24479,-0.32292 -0.47917,-0.4323 -0.22916,-0.11458 -0.64583,-0.11458 h -0.95833 v 3.39063 z m 0.82813,-4.26563 h 1.78125 q 0.58333,0 0.88541,-0.14062 0.30209,-0.14063 0.47917,-0.44271 0.17708,-0.30209 0.17708,-0.70313 0,-0.57812 -0.33854,-0.90625 -0.33854,-0.33333 -1.00521,-0.33333 h -1.97916 z"
       style=""
       id="path204" />
  </g>
  <g
     aria-label="MINUTE"
     style="font-style:normal;font-variant:normal;font-weight:normal;font-stretch:condensed;font-size:10.66666698px;line-height:1.25;font-family:Arial;-inkscape-font-specification:'Arial, Condensed';font-variant-ligatures:normal;font-variant-caps:normal;font-variant-numeric:normal;font-feature-settings:normal;text-align:start;letter-spacing:0px;word-spacing:0px;writing-mode:lr-tb;text-anchor:start;fill:#000000;fill-opacity:1;stroke:none"
     id="text151">
    <path
       d="m 160.18153,212.8698 v -7.63542 h 1.24479 l 1.48438,5.40625 0.29687,1.13021 q 0.10938,-0.42188 0.33333,-1.22396 l 1.5,-5.3125 h 1.11459 v 7.63542 h -0.79688 v -6.39063 l -1.82291,6.39063 h -0.7448 l -1.8125,-6.5 v 6.5 z"
       style=""
       id="path207" />
    <path
       d="m 167.65549,212.8698 v -7.63542 h 0.82812 v 7.63542 z"
       style=""
       id="path209" />
    <path
       d="m 169.9107,212.8698 v -7.63542 h 0.84895 l 3.29167,5.99479 v -5.99479 h 0.79167 v 7.63542 h -0.84896 l -3.28646,-6 v 6 z"
       style=""
       id="path211" />
    <path
       d="m 180.33778,205.23438 h 0.83333 v 4.41146 q 0,1.10937 -0.21875,1.82292 -0.21354,0.70833 -0.78645,1.11979 -0.56771,0.41146 -1.44792,0.41146 -1.23958,0 -1.85938,-0.73959 -0.61458,-0.73958 -0.61458,-2.61458 v -4.41146 h 0.82813 v 4.40625 q 0,1.03646 0.16145,1.5 0.16146,0.46354 0.52605,0.70833 0.36979,0.23959 0.89583,0.23959 0.88542,0 1.28125,-0.5 0.40104,-0.5 0.40104,-1.94792 z"
       style=""
       id="path213" />
    <path
       d="m 184.16591,212.8698 v -6.73438 h -2.0625 v -0.90104 h 4.96354 v 0.90104 h -2.07292 v 6.73438 z"
       style=""
       id="path215" />
    <path
       d="m 187.93153,212.8698 v -7.63542 h 4.52604 v 0.90104 h -3.69792 v 2.33854 h 3.46355 v 0.89584 h -3.46355 v 2.59896 h 3.84375 v 0.90104 z"
       style=""
       id="path217" />
  </g>
  <g
     aria-label="TEMP"
     style="font-style:normal;font-variant:normal;font-weight:normal;font-stretch:condensed;font-size:10.66666698px;line-height:1.25;font-family:Arial;-inkscape-font-specification:'Arial, Condensed';font-variant-ligatures:normal;font-variant-caps:normal;font-variant-numeric:normal;font-feature-settings:normal;text-align:start;letter-spacing:0px;word-spacing:0px;writing-mode:lr-tb;text-anchor:start;fill:#000000;fill-opacity:1;stroke:none"
     id="text155">
    <path
       d="m 228.02209,213 v -6.73438 h -2.0625 v -0.90104 h 4.96355 v 0.90104 h -2.07292 V 213 Z"
       style=""
       id="path220" />
    <path
       d="m 231.78772,213 v -7.63542 h 4.52604 v 0.90104 h -3.69791 v 2.33855 h 3.46354 V 209.5 h -3.46354 v 2.59896 h 3.84375 V 213 Z"
       style=""
       id="path222" />
    <path
       d="m 237.57939,213 v -7.63542 h 1.24479 l 1.48437,5.40625 0.29688,1.13021 q 0.10937,-0.42187 0.33333,-1.22396 l 1.5,-5.3125 h 1.11458 V 213 h -0.79687 v -6.39063 L 240.93355,213 h -0.74479 l -1.8125,-6.5 v 6.5 z"
       style=""
       id="path224" />
    <path
       d="m 244.8971,213 v -7.63542 h 2.35937 q 0.83333,0 1.22917,0.14584 0.54166,0.19791 0.86458,0.73437 0.32292,0.53646 0.32292,1.31771 0,1.03125 -0.52604,1.68229 -0.52605,0.65104 -1.81771,0.65104 h -1.60417 V 213 Z m 0.82812,-4.00521 h 1.61979 q 0.76563,0 1.11979,-0.34375 0.35417,-0.34896 0.35417,-1.04687 0,-0.45313 -0.17708,-0.77605 -0.17188,-0.32291 -0.42188,-0.4427 -0.24479,-0.1198 -0.89062,-0.1198 h -1.60417 z"
       style=""
       id="path226" />
  </g>
  <g
     aria-label="RESET"
     style="font-style:normal;font-variant:normal;font-weight:normal;font-stretch:condensed;font-size:10.66666698px;line-height:1.25;font-family:Arial;-inkscape-font-specification:'Arial, Condensed';font-variant-ligatures:normal;font-variant-caps:normal;font-variant-numeric:normal;font-feature-settings:normal;text-align:start;letter-spacing:0px;word-spacing:0px;writing-mode:lr-tb;text-anchor:start;fill:#000000;fill-opacity:1;stroke:none"
     id="text159">
    <path
       d="m 288.45236,212.86458 v -7.63542 h 2.77604 q 0.8698,0 1.28125,0.21354 0.41667,0.21354 0.6823,0.71354 0.26562,0.4948 0.26562,1.15105 0,0.86458 -0.45312,1.40104 -0.44792,0.53646 -1.3073,0.68229 0.34896,0.20833 0.53125,0.42187 0.3698,0.4375 0.65105,0.97396 l 1.09375,2.07813 h -1.04167 l -0.83333,-1.58854 q -0.48438,-0.9323 -0.73438,-1.25521 -0.24479,-0.32292 -0.47917,-0.43229 -0.22916,-0.11459 -0.64583,-0.11459 h -0.95833 v 3.39063 z m 0.82813,-4.26563 h 1.78125 q 0.58333,0 0.88541,-0.14062 0.30209,-0.14063 0.47917,-0.44271 0.17708,-0.30208 0.17708,-0.70313 0,-0.57812 -0.33854,-0.90625 -0.33854,-0.33333 -1.00521,-0.33333 h -1.97916 z"
       style=""
       id="path229" />
    <path
       d="m 294.7857,212.86458 v -7.63542 h 4.52604 v 0.90104 h -3.69792 v 2.33854 h 3.46354 v 0.89584 h -3.46354 v 2.59896 h 3.84375 v 0.90104 z"
       style=""
       id="path231" />
    <path
       d="m 300.32215,210.41145 0.78125,-0.0833 q 0.0625,0.63021 0.28125,0.98437 0.22396,0.34896 0.63542,0.5625 0.41146,0.21355 0.92708,0.21355 0.73959,0 1.14584,-0.35938 0.41146,-0.36458 0.41146,-0.94271 0,-0.33854 -0.15105,-0.58854 -0.14583,-0.25521 -0.44791,-0.41667 -0.29688,-0.16145 -1.29167,-0.45312 -0.88542,-0.26042 -1.26042,-0.52604 -0.375,-0.26563 -0.58333,-0.67188 -0.20833,-0.41146 -0.20833,-0.92708 0,-0.92708 0.59896,-1.51563 0.59895,-0.58854 1.61458,-0.58854 0.69792,0 1.21875,0.27604 0.52604,0.27605 0.8125,0.79167 0.29167,0.51563 0.3125,1.21354 l -0.79688,0.0729 q -0.0625,-0.74479 -0.44791,-1.10417 -0.38021,-0.35937 -1.07292,-0.35937 -0.70312,0 -1.07292,0.31771 -0.36979,0.3125 -0.36979,0.8125 0,0.46354 0.27084,0.71875 0.27083,0.2552 1.21875,0.51562 0.92708,0.25521 1.30208,0.44271 0.57292,0.29167 0.86458,0.77083 0.29167,0.47396 0.29167,1.13542 0,0.65625 -0.30729,1.19792 -0.30729,0.53645 -0.83854,0.8177 -0.52605,0.28125 -1.27084,0.28125 -1.16146,0 -1.85416,-0.69791 -0.6875,-0.69792 -0.71355,-1.89063 z"
       style=""
       id="path233" />
    <path
       d="m 306.45236,212.86458 v -7.63542 h 4.52605 v 0.90104 h -3.69792 v 2.33854 h 3.46354 v 0.89584 h -3.46354 v 2.59896 h 3.84375 v 0.90104 z"
       style=""
       id="path235" />
    <path
       d="m 313.87424,212.86458 v -6.73438 h -2.0625 v -0.90104 h 4.96354 v 0.90104 h -2.07292 v 6.73438 z"
       style=""
       id="path237" />
  </g>
</svg>
