<?xml version="1.0" encoding="UTF-8" standalone="no"?>
<svg
   xmlns:osb="http://www.openswatchbook.org/uri/2009/osb"
   xmlns:dc="http://purl.org/dc/elements/1.1/"
   xmlns:cc="http://creativecommons.org/ns#"
   xmlns:rdf="http://www.w3.org/1999/02/22-rdf-syntax-ns#"
   xmlns:svg="http://www.w3.org/2000/svg"
   xmlns="http://www.w3.org/2000/svg"
   xmlns:sodipodi="http://sodipodi.sourceforge.net/DTD/sodipodi-0.dtd"
   xmlns:inkscape="http://www.inkscape.org/namespaces/inkscape"
   viewBox="0.0 0.0 348.0 348.0"
   fill="none"
   version="1.1"
   id="svg6"
   sodipodi:docname="Module Name.svg"
   inkscape:version="0.92.5 (2060ec1f9f, 2020-04-08)">
  <metadata
     id="metadata12">
    <rdf:RDF>
      <cc:Work
         rdf:about="">
        <dc:format>image/svg+xml</dc:format>
        <dc:type
           rdf:resource="http://purl.org/dc/dcmitype/StillImage" />
      </cc:Work>
    </rdf:RDF>
  </metadata>
  <defs
     id="defs10">
    <linearGradient
       id="linearGradient2283"
       osb:paint="solid">
      <stop
         style="stop-color:#000000;stop-opacity:1;"
         offset="0"
         id="stop2281" />
    </linearGradient>
  </defs>
  <sodipodi:namedview
     pagecolor="#ffffff"
     bordercolor="#666666"
     borderopacity="1"
     objecttolerance="10"
     gridtolerance="10"
     guidetolerance="10"
     inkscape:pageopacity="0"
     inkscape:pageshadow="2"
     inkscape:window-width="1920"
     inkscape:window-height="1017"
     id="namedview8"
     showgrid="false"
     inkscape:zoom="1.9181287"
     inkscape:cx="115.09021"
     inkscape:cy="167.68515"
     inkscape:window-x="-8"
     inkscape:window-y="-8"
     inkscape:window-maximized="1"
     inkscape:current-layer="svg6" />
  <path
     d="M5.079 5.776h336.913v337.67H5.08z"
     stroke-width="2"
     stroke="#000"
     id="path2" />
  <path
     d="M282.734 40.554c0-8.376 6.966-15.165 15.56-15.165 4.126 0 8.084 1.597 11.001 4.441 2.918 2.844 4.558 6.702 4.558 10.724 0 8.376-6.966 15.165-15.56 15.165-8.593 0-15.559-6.79-15.559-15.165z"
     stroke-width="2"
     stroke="#000"
     id="path4" />
  <path
     style="fill:none;fill-opacity:1;stroke:#000000;stroke-width:1;stroke-linecap:square;stroke-linejoin:bevel;stroke-miterlimit:4;stroke-dasharray:none;stroke-opacity:1;paint-order:markers stroke fill"
     d="M 33.59322,38.033897 H 216.94667 V 201.07037 H 33.59322 Z"
     id="rect14" />
  <path
     style="fill:none;fill-opacity:1;stroke:#000000;stroke-width:1;stroke-linecap:square;stroke-linejoin:bevel;stroke-miterlimit:4;stroke-dasharray:none;stroke-opacity:1;paint-order:markers stroke fill"
     d="m 232.60365,74.628059 h 37.53659 v 38.579261 h -37.53659 z"
     id="rect2311" />
  <path
     style="fill:none;fill-opacity:1;stroke:#000000;stroke-width:1;stroke-linecap:square;stroke-linejoin:bevel;stroke-miterlimit:4;stroke-dasharray:none;stroke-opacity:1;paint-order:markers stroke fill"
     d="m 81.547005,259.58969 h 88.192575 v 46.48526 H 81.547005 Z"
     id="rect2313" />
  <path
     style="fill:none;fill-opacity:1;stroke:#000000;stroke-width:1;stroke-linecap:square;stroke-linejoin:bevel;stroke-miterlimit:4;stroke-dasharray:none;stroke-opacity:1;paint-order:markers stroke fill"
     d="m 32.23542,262.62567 h 38.077938 v 38.07794 H 32.23542 Z"
     id="rect2315" />
  <path
     style="fill:none;fill-opacity:1;stroke:#000000;stroke-width:1;stroke-linecap:square;stroke-linejoin:bevel;stroke-miterlimit:4;stroke-dasharray:none;stroke-opacity:1;paint-order:markers stroke fill"
     d="m 178.74783,262.61371 h 38.61407 v 38.61406 h -38.61407 z"
     id="rect2317" />
  <path
     style="fill:none;fill-opacity:1;stroke:#000000;stroke-width:1;stroke-linecap:square;stroke-linejoin:bevel;stroke-miterlimit:4;stroke-dasharray:none;stroke-opacity:1;paint-order:markers stroke fill"
     d="m 248.77438,171.78659 h 58.39024 v 135.54877 h -58.39024 z"
     id="rect2319" />
  <g
     aria-label="00"
     style="font-style:normal;font-variant:normal;font-weight:500;font-stretch:normal;font-size:42.66666794px;line-height:1.25;font-family:DotMatModified;-inkscape-font-specification:'DotMatModified, Medium';font-variant-ligatures:normal;font-variant-caps:normal;font-variant-numeric:normal;font-feature-settings:normal;text-align:start;letter-spacing:0px;word-spacing:0px;writing-mode:lr-tb;text-anchor:start;fill:#000000;fill-opacity:1;stroke:none"
     id="text2323">
    <path
       d="m 102.66108,291.99187 c 0.35416,0.35417 0.79166,0.54167 1.29166,0.54167 0.5,0 0.9375,-0.1875 1.29167,-0.54167 0.35417,-0.35416 0.52083,-0.77083 0.52083,-1.27083 0,-0.5 -0.16666,-0.9375 -0.52083,-1.29167 -0.35417,-0.35416 -0.79167,-0.52083 -1.29167,-0.52083 -0.5,0 -0.9375,0.16667 -1.29166,0.52083 -0.35417,0.35417 -0.54167,0.79167 -0.54167,1.29167 0,0.5 0.1875,0.91667 0.54167,1.27083 z m 0,-4.375 c 0.35416,0.35417 0.79166,0.54167 1.29166,0.54167 0.5,0 0.9375,-0.1875 1.29167,-0.54167 0.35417,-0.35416 0.52083,-0.77083 0.52083,-1.27083 0,-0.5 -0.16666,-0.9375 -0.52083,-1.29167 -0.35417,-0.35416 -0.79167,-0.52083 -1.29167,-0.52083 -0.5,0 -0.9375,0.16667 -1.29166,0.52083 -0.35417,0.35417 -0.54167,0.79167 -0.54167,1.29167 0,0.5 0.1875,0.91667 0.54167,1.27083 z m 0,-4.375 c 0.35416,0.35417 0.79166,0.54167 1.29166,0.54167 0.5,0 0.9375,-0.1875 1.29167,-0.54167 0.35417,-0.35416 0.52083,-0.77083 0.52083,-1.27083 0,-0.5 -0.16666,-0.9375 -0.52083,-1.29167 -0.35417,-0.35417 -0.79167,-0.52083 -1.29167,-0.52083 -0.5,0 -0.9375,0.16666 -1.29166,0.52083 -0.35417,0.35417 -0.54167,0.79167 -0.54167,1.29167 0,0.5 0.1875,0.91667 0.54167,1.27083 z m 0,-4.35417 c 0.35416,0.35417 0.79166,0.54167 1.29166,0.54167 0.5,0 0.9375,-0.1875 1.29167,-0.54167 0.35417,-0.35416 0.52083,-0.79166 0.52083,-1.29166 0,-0.5 -0.16666,-0.9375 -0.52083,-1.29167 -0.35417,-0.35417 -0.79167,-0.52083 -1.29167,-0.52083 -0.5,0 -0.9375,0.16666 -1.29166,0.52083 -0.35417,0.35417 -0.54167,0.79167 -0.54167,1.29167 0,0.5 0.1875,0.9375 0.54167,1.29166 z m 0,-4.375 c 0.35416,0.35417 0.79166,0.54167 1.29166,0.54167 0.5,0 0.9375,-0.1875 1.29167,-0.54167 0.35417,-0.35416 0.52083,-0.77083 0.52083,-1.27083 0,-0.5 -0.16666,-0.9375 -0.52083,-1.29167 -0.35417,-0.35416 -0.79167,-0.54166 -1.29167,-0.54166 -0.5,0 -0.9375,0.1875 -1.29166,0.54166 -0.35417,0.35417 -0.54167,0.79167 -0.54167,1.29167 0,0.5 0.1875,0.91667 0.54167,1.27083 z m 4.47916,21.85417 c 0.35417,0.35417 0.77084,0.54167 1.27084,0.54167 0.5,0 0.9375,-0.1875 1.29166,-0.54167 0.35417,-0.35416 0.54167,-0.77083 0.54167,-1.27083 0,-0.5 -0.1875,-0.9375 -0.54167,-1.29167 -0.35416,-0.35416 -0.79166,-0.54166 -1.29166,-0.54166 -0.5,0 -0.91667,0.1875 -1.27084,0.54166 -0.35416,0.35417 -0.54166,0.79167 -0.54166,1.29167 0,0.5 0.1875,0.91667 0.54166,1.27083 z m 0,-8.75 c 0.35417,0.35417 0.77084,0.54167 1.27084,0.54167 0.5,0 0.9375,-0.1875 1.29166,-0.54167 0.35417,-0.35416 0.54167,-0.77083 0.54167,-1.27083 0,-0.5 -0.1875,-0.9375 -0.54167,-1.29167 -0.35416,-0.35416 -0.79166,-0.52083 -1.29166,-0.52083 -0.5,0 -0.91667,0.16667 -1.27084,0.52083 -0.35416,0.35417 -0.54166,0.79167 -0.54166,1.29167 0,0.5 0.1875,0.91667 0.54166,1.27083 z m 0,-17.47917 c 0.35417,0.35417 0.77084,0.54167 1.27084,0.54167 0.5,0 0.9375,-0.1875 1.29166,-0.54167 0.35417,-0.35416 0.54167,-0.77083 0.54167,-1.27083 0,-0.5 -0.1875,-0.9375 -0.54167,-1.29167 -0.35416,-0.35416 -0.79166,-0.54166 -1.29166,-0.54166 -0.5,0 -0.91667,0.1875 -1.27084,0.54166 -0.35416,0.35417 -0.54166,0.79167 -0.54166,1.29167 0,0.5 0.1875,0.91667 0.54166,1.27083 z m 4.47917,26.22917 c 0.35417,0.35417 0.77083,0.54167 1.27083,0.54167 0.5,0 0.9375,-0.1875 1.29167,-0.54167 0.35417,-0.35416 0.52083,-0.77083 0.52083,-1.27083 0,-0.5 -0.16666,-0.9375 -0.52083,-1.29167 -0.35417,-0.35416 -0.79167,-0.54166 -1.29167,-0.54166 -0.5,0 -0.91666,0.1875 -1.27083,0.54166 -0.35417,0.35417 -0.54167,0.79167 -0.54167,1.29167 0,0.5 0.1875,0.91667 0.54167,1.27083 z m 0,-13.125 c 0.35417,0.35417 0.77083,0.54167 1.27083,0.54167 0.5,0 0.9375,-0.1875 1.29167,-0.54167 0.35417,-0.35416 0.52083,-0.77083 0.52083,-1.27083 0,-0.5 -0.16666,-0.9375 -0.52083,-1.29167 -0.35417,-0.35417 -0.79167,-0.52083 -1.29167,-0.52083 -0.5,0 -0.91666,0.16666 -1.27083,0.52083 -0.35417,0.35417 -0.54167,0.79167 -0.54167,1.29167 0,0.5 0.1875,0.91667 0.54167,1.27083 z m 0,-13.10417 c 0.35417,0.35417 0.77083,0.54167 1.27083,0.54167 0.5,0 0.9375,-0.1875 1.29167,-0.54167 0.35417,-0.35416 0.52083,-0.77083 0.52083,-1.27083 0,-0.5 -0.16666,-0.9375 -0.52083,-1.29167 -0.35417,-0.35416 -0.79167,-0.54166 -1.29167,-0.54166 -0.5,0 -0.91666,0.1875 -1.27083,0.54166 -0.35417,0.35417 -0.54167,0.79167 -0.54167,1.29167 0,0.5 0.1875,0.91667 0.54167,1.27083 z m 4.47917,26.22917 c 0.35416,0.35417 0.77083,0.54167 1.27083,0.54167 0.5,0 0.9375,-0.1875 1.29167,-0.54167 0.35416,-0.35416 0.52083,-0.77083 0.52083,-1.27083 0,-0.5 -0.16667,-0.9375 -0.52083,-1.29167 -0.35417,-0.35416 -0.79167,-0.54166 -1.29167,-0.54166 -0.5,0 -0.91667,0.1875 -1.27083,0.54166 -0.35417,0.35417 -0.54167,0.79167 -0.54167,1.29167 0,0.5 0.1875,0.91667 0.54167,1.27083 z m 0,-17.47917 c 0.35416,0.35417 0.77083,0.54167 1.27083,0.54167 0.5,0 0.9375,-0.1875 1.29167,-0.54167 0.35416,-0.35416 0.52083,-0.79166 0.52083,-1.29166 0,-0.5 -0.16667,-0.9375 -0.52083,-1.29167 -0.35417,-0.35417 -0.79167,-0.52083 -1.29167,-0.52083 -0.5,0 -0.91667,0.16666 -1.27083,0.52083 -0.35417,0.35417 -0.54167,0.79167 -0.54167,1.29167 0,0.5 0.1875,0.9375 0.54167,1.29166 z m 0,-8.75 c 0.35416,0.35417 0.77083,0.54167 1.27083,0.54167 0.5,0 0.9375,-0.1875 1.29167,-0.54167 0.35416,-0.35416 0.52083,-0.77083 0.52083,-1.27083 0,-0.5 -0.16667,-0.9375 -0.52083,-1.29167 -0.35417,-0.35416 -0.79167,-0.54166 -1.29167,-0.54166 -0.5,0 -0.91667,0.1875 -1.27083,0.54166 -0.35417,0.35417 -0.54167,0.79167 -0.54167,1.29167 0,0.5 0.1875,0.91667 0.54167,1.27083 z m 4.45833,21.85417 c 0.35417,0.35417 0.79167,0.54167 1.29167,0.54167 0.5,0 0.9375,-0.1875 1.29166,-0.54167 0.35417,-0.35416 0.52084,-0.77083 0.52084,-1.27083 0,-0.5 -0.16667,-0.9375 -0.52084,-1.29167 -0.35416,-0.35416 -0.79166,-0.52083 -1.29166,-0.52083 -0.5,0 -0.9375,0.16667 -1.29167,0.52083 -0.35417,0.35417 -0.54167,0.79167 -0.54167,1.29167 0,0.5 0.1875,0.91667 0.54167,1.27083 z m 0,-4.375 c 0.35417,0.35417 0.79167,0.54167 1.29167,0.54167 0.5,0 0.9375,-0.1875 1.29166,-0.54167 0.35417,-0.35416 0.52084,-0.77083 0.52084,-1.27083 0,-0.5 -0.16667,-0.9375 -0.52084,-1.29167 -0.35416,-0.35416 -0.79166,-0.52083 -1.29166,-0.52083 -0.5,0 -0.9375,0.16667 -1.29167,0.52083 -0.35417,0.35417 -0.54167,0.79167 -0.54167,1.29167 0,0.5 0.1875,0.91667 0.54167,1.27083 z m 0,-4.375 c 0.35417,0.35417 0.79167,0.54167 1.29167,0.54167 0.5,0 0.9375,-0.1875 1.29166,-0.54167 0.35417,-0.35416 0.52084,-0.77083 0.52084,-1.27083 0,-0.5 -0.16667,-0.9375 -0.52084,-1.29167 -0.35416,-0.35417 -0.79166,-0.52083 -1.29166,-0.52083 -0.5,0 -0.9375,0.16666 -1.29167,0.52083 -0.35417,0.35417 -0.54167,0.79167 -0.54167,1.29167 0,0.5 0.1875,0.91667 0.54167,1.27083 z m 0,-4.35417 c 0.35417,0.35417 0.79167,0.54167 1.29167,0.54167 0.5,0 0.9375,-0.1875 1.29166,-0.54167 0.35417,-0.35416 0.52084,-0.79166 0.52084,-1.29166 0,-0.5 -0.16667,-0.9375 -0.52084,-1.29167 -0.35416,-0.35417 -0.79166,-0.52083 -1.29166,-0.52083 -0.5,0 -0.9375,0.16666 -1.29167,0.52083 -0.35417,0.35417 -0.54167,0.79167 -0.54167,1.29167 0,0.5 0.1875,0.9375 0.54167,1.29166 z m 0,-4.375 c 0.35417,0.35417 0.79167,0.54167 1.29167,0.54167 0.5,0 0.9375,-0.1875 1.29166,-0.54167 0.35417,-0.35416 0.52084,-0.77083 0.52084,-1.27083 0,-0.5 -0.16667,-0.9375 -0.52084,-1.29167 -0.35416,-0.35416 -0.79166,-0.54166 -1.29166,-0.54166 -0.5,0 -0.9375,0.1875 -1.29167,0.54166 -0.35417,0.35417 -0.54167,0.79167 -0.54167,1.29167 0,0.5 0.1875,0.91667 0.54167,1.27083 z"
       style="font-style:normal;font-variant:normal;font-weight:500;font-stretch:normal;font-size:42.66666794px;font-family:DotMatModified;-inkscape-font-specification:'DotMatModified, Medium';font-variant-ligatures:normal;font-variant-caps:normal;font-variant-numeric:normal;font-feature-settings:normal;text-align:start;writing-mode:lr-tb;text-anchor:start"
       id="path867" />
    <path
       d="m 130.16108,291.99187 c 0.35416,0.35417 0.79166,0.54167 1.29166,0.54167 0.5,0 0.9375,-0.1875 1.29167,-0.54167 0.35417,-0.35416 0.52083,-0.77083 0.52083,-1.27083 0,-0.5 -0.16666,-0.9375 -0.52083,-1.29167 -0.35417,-0.35416 -0.79167,-0.52083 -1.29167,-0.52083 -0.5,0 -0.9375,0.16667 -1.29166,0.52083 -0.35417,0.35417 -0.54167,0.79167 -0.54167,1.29167 0,0.5 0.1875,0.91667 0.54167,1.27083 z m 0,-4.375 c 0.35416,0.35417 0.79166,0.54167 1.29166,0.54167 0.5,0 0.9375,-0.1875 1.29167,-0.54167 0.35417,-0.35416 0.52083,-0.77083 0.52083,-1.27083 0,-0.5 -0.16666,-0.9375 -0.52083,-1.29167 -0.35417,-0.35416 -0.79167,-0.52083 -1.29167,-0.52083 -0.5,0 -0.9375,0.16667 -1.29166,0.52083 -0.35417,0.35417 -0.54167,0.79167 -0.54167,1.29167 0,0.5 0.1875,0.91667 0.54167,1.27083 z m 0,-4.375 c 0.35416,0.35417 0.79166,0.54167 1.29166,0.54167 0.5,0 0.9375,-0.1875 1.29167,-0.54167 0.35417,-0.35416 0.52083,-0.77083 0.52083,-1.27083 0,-0.5 -0.16666,-0.9375 -0.52083,-1.29167 -0.35417,-0.35417 -0.79167,-0.52083 -1.29167,-0.52083 -0.5,0 -0.9375,0.16666 -1.29166,0.52083 -0.35417,0.35417 -0.54167,0.79167 -0.54167,1.29167 0,0.5 0.1875,0.91667 0.54167,1.27083 z m 0,-4.35417 c 0.35416,0.35417 0.79166,0.54167 1.29166,0.54167 0.5,0 0.9375,-0.1875 1.29167,-0.54167 0.35417,-0.35416 0.52083,-0.79166 0.52083,-1.29166 0,-0.5 -0.16666,-0.9375 -0.52083,-1.29167 -0.35417,-0.35417 -0.79167,-0.52083 -1.29167,-0.52083 -0.5,0 -0.9375,0.16666 -1.29166,0.52083 -0.35417,0.35417 -0.54167,0.79167 -0.54167,1.29167 0,0.5 0.1875,0.9375 0.54167,1.29166 z m 0,-4.375 c 0.35416,0.35417 0.79166,0.54167 1.29166,0.54167 0.5,0 0.9375,-0.1875 1.29167,-0.54167 0.35417,-0.35416 0.52083,-0.77083 0.52083,-1.27083 0,-0.5 -0.16666,-0.9375 -0.52083,-1.29167 -0.35417,-0.35416 -0.79167,-0.54166 -1.29167,-0.54166 -0.5,0 -0.9375,0.1875 -1.29166,0.54166 -0.35417,0.35417 -0.54167,0.79167 -0.54167,1.29167 0,0.5 0.1875,0.91667 0.54167,1.27083 z m 4.47916,21.85417 c 0.35417,0.35417 0.77084,0.54167 1.27084,0.54167 0.5,0 0.9375,-0.1875 1.29166,-0.54167 0.35417,-0.35416 0.54167,-0.77083 0.54167,-1.27083 0,-0.5 -0.1875,-0.9375 -0.54167,-1.29167 -0.35416,-0.35416 -0.79166,-0.54166 -1.29166,-0.54166 -0.5,0 -0.91667,0.1875 -1.27084,0.54166 -0.35416,0.35417 -0.54166,0.79167 -0.54166,1.29167 0,0.5 0.1875,0.91667 0.54166,1.27083 z m 0,-8.75 c 0.35417,0.35417 0.77084,0.54167 1.27084,0.54167 0.5,0 0.9375,-0.1875 1.29166,-0.54167 0.35417,-0.35416 0.54167,-0.77083 0.54167,-1.27083 0,-0.5 -0.1875,-0.9375 -0.54167,-1.29167 -0.35416,-0.35416 -0.79166,-0.52083 -1.29166,-0.52083 -0.5,0 -0.91667,0.16667 -1.27084,0.52083 -0.35416,0.35417 -0.54166,0.79167 -0.54166,1.29167 0,0.5 0.1875,0.91667 0.54166,1.27083 z m 0,-17.47917 c 0.35417,0.35417 0.77084,0.54167 1.27084,0.54167 0.5,0 0.9375,-0.1875 1.29166,-0.54167 0.35417,-0.35416 0.54167,-0.77083 0.54167,-1.27083 0,-0.5 -0.1875,-0.9375 -0.54167,-1.29167 -0.35416,-0.35416 -0.79166,-0.54166 -1.29166,-0.54166 -0.5,0 -0.91667,0.1875 -1.27084,0.54166 -0.35416,0.35417 -0.54166,0.79167 -0.54166,1.29167 0,0.5 0.1875,0.91667 0.54166,1.27083 z m 4.47917,26.22917 c 0.35417,0.35417 0.77083,0.54167 1.27083,0.54167 0.5,0 0.9375,-0.1875 1.29167,-0.54167 0.35417,-0.35416 0.52083,-0.77083 0.52083,-1.27083 0,-0.5 -0.16666,-0.9375 -0.52083,-1.29167 -0.35417,-0.35416 -0.79167,-0.54166 -1.29167,-0.54166 -0.5,0 -0.91666,0.1875 -1.27083,0.54166 -0.35417,0.35417 -0.54167,0.79167 -0.54167,1.29167 0,0.5 0.1875,0.91667 0.54167,1.27083 z m 0,-13.125 c 0.35417,0.35417 0.77083,0.54167 1.27083,0.54167 0.5,0 0.9375,-0.1875 1.29167,-0.54167 0.35417,-0.35416 0.52083,-0.77083 0.52083,-1.27083 0,-0.5 -0.16666,-0.9375 -0.52083,-1.29167 -0.35417,-0.35417 -0.79167,-0.52083 -1.29167,-0.52083 -0.5,0 -0.91666,0.16666 -1.27083,0.52083 -0.35417,0.35417 -0.54167,0.79167 -0.54167,1.29167 0,0.5 0.1875,0.91667 0.54167,1.27083 z m 0,-13.10417 c 0.35417,0.35417 0.77083,0.54167 1.27083,0.54167 0.5,0 0.9375,-0.1875 1.29167,-0.54167 0.35417,-0.35416 0.52083,-0.77083 0.52083,-1.27083 0,-0.5 -0.16666,-0.9375 -0.52083,-1.29167 -0.35417,-0.35416 -0.79167,-0.54166 -1.29167,-0.54166 -0.5,0 -0.91666,0.1875 -1.27083,0.54166 -0.35417,0.35417 -0.54167,0.79167 -0.54167,1.29167 0,0.5 0.1875,0.91667 0.54167,1.27083 z m 4.47917,26.22917 c 0.35416,0.35417 0.77083,0.54167 1.27083,0.54167 0.5,0 0.9375,-0.1875 1.29167,-0.54167 0.35416,-0.35416 0.52083,-0.77083 0.52083,-1.27083 0,-0.5 -0.16667,-0.9375 -0.52083,-1.29167 -0.35417,-0.35416 -0.79167,-0.54166 -1.29167,-0.54166 -0.5,0 -0.91667,0.1875 -1.27083,0.54166 -0.35417,0.35417 -0.54167,0.79167 -0.54167,1.29167 0,0.5 0.1875,0.91667 0.54167,1.27083 z m 0,-17.47917 c 0.35416,0.35417 0.77083,0.54167 1.27083,0.54167 0.5,0 0.9375,-0.1875 1.29167,-0.54167 0.35416,-0.35416 0.52083,-0.79166 0.52083,-1.29166 0,-0.5 -0.16667,-0.9375 -0.52083,-1.29167 -0.35417,-0.35417 -0.79167,-0.52083 -1.29167,-0.52083 -0.5,0 -0.91667,0.16666 -1.27083,0.52083 -0.35417,0.35417 -0.54167,0.79167 -0.54167,1.29167 0,0.5 0.1875,0.9375 0.54167,1.29166 z m 0,-8.75 c 0.35416,0.35417 0.77083,0.54167 1.27083,0.54167 0.5,0 0.9375,-0.1875 1.29167,-0.54167 0.35416,-0.35416 0.52083,-0.77083 0.52083,-1.27083 0,-0.5 -0.16667,-0.9375 -0.52083,-1.29167 -0.35417,-0.35416 -0.79167,-0.54166 -1.29167,-0.54166 -0.5,0 -0.91667,0.1875 -1.27083,0.54166 -0.35417,0.35417 -0.54167,0.79167 -0.54167,1.29167 0,0.5 0.1875,0.91667 0.54167,1.27083 z m 4.45833,21.85417 c 0.35417,0.35417 0.79167,0.54167 1.29167,0.54167 0.5,0 0.9375,-0.1875 1.29166,-0.54167 0.35417,-0.35416 0.52084,-0.77083 0.52084,-1.27083 0,-0.5 -0.16667,-0.9375 -0.52084,-1.29167 -0.35416,-0.35416 -0.79166,-0.52083 -1.29166,-0.52083 -0.5,0 -0.9375,0.16667 -1.29167,0.52083 -0.35417,0.35417 -0.54167,0.79167 -0.54167,1.29167 0,0.5 0.1875,0.91667 0.54167,1.27083 z m 0,-4.375 c 0.35417,0.35417 0.79167,0.54167 1.29167,0.54167 0.5,0 0.9375,-0.1875 1.29166,-0.54167 0.35417,-0.35416 0.52084,-0.77083 0.52084,-1.27083 0,-0.5 -0.16667,-0.9375 -0.52084,-1.29167 -0.35416,-0.35416 -0.79166,-0.52083 -1.29166,-0.52083 -0.5,0 -0.9375,0.16667 -1.29167,0.52083 -0.35417,0.35417 -0.54167,0.79167 -0.54167,1.29167 0,0.5 0.1875,0.91667 0.54167,1.27083 z m 0,-4.375 c 0.35417,0.35417 0.79167,0.54167 1.29167,0.54167 0.5,0 0.9375,-0.1875 1.29166,-0.54167 0.35417,-0.35416 0.52084,-0.77083 0.52084,-1.27083 0,-0.5 -0.16667,-0.9375 -0.52084,-1.29167 -0.35416,-0.35417 -0.79166,-0.52083 -1.29166,-0.52083 -0.5,0 -0.9375,0.16666 -1.29167,0.52083 -0.35417,0.35417 -0.54167,0.79167 -0.54167,1.29167 0,0.5 0.1875,0.91667 0.54167,1.27083 z m 0,-4.35417 c 0.35417,0.35417 0.79167,0.54167 1.29167,0.54167 0.5,0 0.9375,-0.1875 1.29166,-0.54167 0.35417,-0.35416 0.52084,-0.79166 0.52084,-1.29166 0,-0.5 -0.16667,-0.9375 -0.52084,-1.29167 -0.35416,-0.35417 -0.79166,-0.52083 -1.29166,-0.52083 -0.5,0 -0.9375,0.16666 -1.29167,0.52083 -0.35417,0.35417 -0.54167,0.79167 -0.54167,1.29167 0,0.5 0.1875,0.9375 0.54167,1.29166 z m 0,-4.375 c 0.35417,0.35417 0.79167,0.54167 1.29167,0.54167 0.5,0 0.9375,-0.1875 1.29166,-0.54167 0.35417,-0.35416 0.52084,-0.77083 0.52084,-1.27083 0,-0.5 -0.16667,-0.9375 -0.52084,-1.29167 -0.35416,-0.35416 -0.79166,-0.54166 -1.29166,-0.54166 -0.5,0 -0.9375,0.1875 -1.29167,0.54166 -0.35417,0.35417 -0.54167,0.79167 -0.54167,1.29167 0,0.5 0.1875,0.91667 0.54167,1.27083 z"
       style="font-style:normal;font-variant:normal;font-weight:500;font-stretch:normal;font-size:42.66666794px;font-family:DotMatModified;-inkscape-font-specification:'DotMatModified, Medium';font-variant-ligatures:normal;font-variant-caps:normal;font-variant-numeric:normal;font-feature-settings:normal;text-align:start;writing-mode:lr-tb;text-anchor:start"
       id="path869" />
  </g>
  <g
     aria-label="-"
     style="font-style:normal;font-variant:normal;font-weight:normal;font-stretch:normal;font-size:26.66666603px;line-height:1.25;font-family:Arial;-inkscape-font-specification:'Arial, Normal';font-variant-ligatures:normal;font-variant-caps:normal;font-variant-numeric:normal;font-feature-settings:normal;text-align:start;letter-spacing:0px;word-spacing:0px;writing-mode:lr-tb;text-anchor:start;fill:#000000;fill-opacity:1;stroke:none"
     id="text829">
    <path
       d="m 47.065863,282.66717 v -2.35678 h 7.200521 v 2.35678 z"
       style=""
       id="path872" />
  </g>
  <g
     aria-label="+"
     style="font-style:normal;font-variant:normal;font-weight:normal;font-stretch:normal;font-size:26.66666603px;line-height:1.25;font-family:Arial;-inkscape-font-specification:'Arial, Normal';font-variant-ligatures:normal;font-variant-caps:normal;font-variant-numeric:normal;font-feature-settings:normal;text-align:start;letter-spacing:0px;word-spacing:0px;writing-mode:lr-tb;text-anchor:start;fill:#000000;fill-opacity:1;stroke:none"
     id="text829-3">
    <path
       d="m 196.97394,287.76978 v -5.23438 h -5.19531 v -2.1875 h 5.19531 v -5.19531 h 2.21354 v 5.19531 h 5.19531 v 2.1875 h -5.19531 v 5.23438 z"
       style=""
       id="path875" />
  </g>
  <g
     aria-label="1"
     transform="scale(0.98252695,1.0177838)"
     style="font-style:normal;font-variant:normal;font-weight:500;font-stretch:normal;font-size:36.06870651px;line-height:1.25;font-family:DotMatModified;-inkscape-font-specification:'DotMatModified, Medium';font-variant-ligatures:normal;font-variant-caps:normal;font-variant-numeric:normal;font-feature-settings:normal;text-align:start;letter-spacing:0px;word-spacing:0px;writing-mode:lr-tb;text-anchor:start;fill:#000000;fill-opacity:1;stroke:none;stroke-width:0.84536022"
     id="text2323-8">
    <path
       d="m 252.65554,105.09334 c 0.2994,0.2994 0.66924,0.45791 1.09192,0.45791 0.42268,0 0.79253,-0.15851 1.09192,-0.45791 0.2994,-0.2994 0.4403,-0.65163 0.4403,-1.07431 0,-0.42268 -0.1409,-0.79252 -0.4403,-1.09192 -0.29939,-0.2994 -0.66924,-0.45791 -1.09192,-0.45791 -0.42268,0 -0.79252,0.15851 -1.09192,0.45791 -0.2994,0.2994 -0.45791,0.66924 -0.45791,1.09192 0,0.42268 0.15851,0.77491 0.45791,1.07431 z m 0,-18.474642 c 0.2994,0.299399 0.66924,0.457904 1.09192,0.457904 0.42268,0 0.79253,-0.158505 1.09192,-0.457904 0.2994,-0.299398 0.4403,-0.651632 0.4403,-1.074312 0,-0.42268 -0.1409,-0.792525 -0.4403,-1.091924 -0.29939,-0.299398 -0.66924,-0.457903 -1.09192,-0.457903 -0.42268,0 -0.79252,0.158505 -1.09192,0.457903 -0.2994,0.299399 -0.45791,0.669244 -0.45791,1.091924 0,0.42268 0.15851,0.774914 0.45791,1.074312 z m 3.78651,18.474642 c 0.2994,0.2994 0.65163,0.45791 1.07431,0.45791 0.42268,0 0.79252,-0.15851 1.09192,-0.45791 0.2994,-0.2994 0.45791,-0.65163 0.45791,-1.07431 0,-0.42268 -0.15851,-0.79252 -0.45791,-1.09192 -0.2994,-0.2994 -0.66924,-0.45791 -1.09192,-0.45791 -0.42268,0 -0.77491,0.15851 -1.07431,0.45791 -0.2994,0.2994 -0.45791,0.66924 -0.45791,1.09192 0,0.42268 0.15851,0.77491 0.45791,1.07431 z m 0,-3.69845 c 0.2994,0.2994 0.65163,0.45791 1.07431,0.45791 0.42268,0 0.79252,-0.15851 1.09192,-0.45791 0.2994,-0.2994 0.45791,-0.65163 0.45791,-1.07431 0,-0.42268 -0.15851,-0.792526 -0.45791,-1.091924 -0.2994,-0.299398 -0.66924,-0.440292 -1.09192,-0.440292 -0.42268,0 -0.77491,0.140894 -1.07431,0.440292 -0.2994,0.299398 -0.45791,0.669244 -0.45791,1.091924 0,0.42268 0.15851,0.77491 0.45791,1.07431 z m 0,-3.69845 c 0.2994,0.299399 0.65163,0.457904 1.07431,0.457904 0.42268,0 0.79252,-0.158505 1.09192,-0.457904 0.2994,-0.299398 0.45791,-0.651631 0.45791,-1.074312 0,-0.42268 -0.15851,-0.792525 -0.45791,-1.091923 -0.2994,-0.299399 -0.66924,-0.440292 -1.09192,-0.440292 -0.42268,0 -0.77491,0.140893 -1.07431,0.440292 -0.2994,0.299398 -0.45791,0.669243 -0.45791,1.091923 0,0.422681 0.15851,0.774914 0.45791,1.074312 z m 0,-3.698451 c 0.2994,0.299399 0.65163,0.457904 1.07431,0.457904 0.42268,0 0.79252,-0.158505 1.09192,-0.457904 0.2994,-0.299398 0.45791,-0.651632 0.45791,-1.074312 0,-0.42268 -0.15851,-0.792525 -0.45791,-1.091924 -0.2994,-0.299398 -0.66924,-0.440292 -1.09192,-0.440292 -0.42268,0 -0.77491,0.140894 -1.07431,0.440292 -0.2994,0.299399 -0.45791,0.669244 -0.45791,1.091924 0,0.42268 0.15851,0.774914 0.45791,1.074312 z m 0,-3.68084 c 0.2994,0.299399 0.65163,0.457904 1.07431,0.457904 0.42268,0 0.79252,-0.158505 1.09192,-0.457904 0.2994,-0.299398 0.45791,-0.669243 0.45791,-1.091923 0,-0.42268 -0.15851,-0.792526 -0.45791,-1.091924 -0.2994,-0.299398 -0.66924,-0.440292 -1.09192,-0.440292 -0.42268,0 -0.77491,0.140894 -1.07431,0.440292 -0.2994,0.299398 -0.45791,0.669244 -0.45791,1.091924 0,0.42268 0.15851,0.792525 0.45791,1.091923 z m 0,-3.698451 c 0.2994,0.299399 0.65163,0.457904 1.07431,0.457904 0.42268,0 0.79252,-0.158505 1.09192,-0.457904 0.2994,-0.299398 0.45791,-0.651632 0.45791,-1.074312 0,-0.42268 -0.15851,-0.792525 -0.45791,-1.091924 -0.2994,-0.299398 -0.66924,-0.457903 -1.09192,-0.457903 -0.42268,0 -0.77491,0.158505 -1.07431,0.457903 -0.2994,0.299399 -0.45791,0.669244 -0.45791,1.091924 0,0.42268 0.15851,0.774914 0.45791,1.074312 z m 0,-3.698451 c 0.2994,0.299398 0.65163,0.457903 1.07431,0.457903 0.42268,0 0.79252,-0.158505 1.09192,-0.457903 0.2994,-0.299399 0.45791,-0.651632 0.45791,-1.074312 0,-0.422681 -0.15851,-0.792526 -0.45791,-1.091924 -0.2994,-0.299399 -0.66924,-0.457904 -1.09192,-0.457904 -0.42268,0 -0.77491,0.158505 -1.07431,0.457904 -0.2994,0.299398 -0.45791,0.669243 -0.45791,1.091924 0,0.42268 0.15851,0.774913 0.45791,1.074312 z m 3.78651,22.190703 c 0.29939,0.2994 0.65163,0.4403 1.07431,0.4403 0.42268,0 0.79252,-0.1409 1.09192,-0.4403 0.2994,-0.29939 0.44029,-0.66924 0.44029,-1.09192 0,-0.42268 -0.14089,-0.79252 -0.44029,-1.09192 -0.2994,-0.2994 -0.66924,-0.45791 -1.09192,-0.45791 -0.42268,0 -0.77492,0.15851 -1.07431,0.45791 -0.2994,0.2994 -0.45791,0.66924 -0.45791,1.09192 0,0.42268 0.15851,0.79253 0.45791,1.09192 z m 3.78651,-0.0176 c 0.29939,0.2994 0.65163,0.45791 1.07431,0.45791 0.42268,0 0.79252,-0.15851 1.09192,-0.45791 0.2994,-0.2994 0.44029,-0.65163 0.44029,-1.07431 0,-0.42268 -0.14089,-0.79252 -0.44029,-1.09192 -0.2994,-0.2994 -0.66924,-0.45791 -1.09192,-0.45791 -0.42268,0 -0.77492,0.15851 -1.07431,0.45791 -0.2994,0.2994 -0.45791,0.66924 -0.45791,1.09192 0,0.42268 0.15851,0.77491 0.45791,1.07431 z m -15.14604,0.0176 c 0.2994,0.2994 0.66924,0.4403 1.09192,0.4403 0.42268,0 0.79253,-0.1409 1.09192,-0.4403 0.2994,-0.29939 0.4403,-0.66924 0.4403,-1.09192 0,-0.42268 -0.1409,-0.79252 -0.4403,-1.09192 -0.29939,-0.2994 -0.66924,-0.45791 -1.09192,-0.45791 -0.42268,0 -0.79252,0.15851 -1.09192,0.45791 -0.2994,0.2994 -0.45791,0.66924 -0.45791,1.09192 0,0.42268 0.15851,0.79253 0.45791,1.09192 z m 0,-14.793801 c 0.2994,0.299399 0.66924,0.457904 1.09192,0.457904 0.42268,0 0.79253,-0.158505 1.09192,-0.457904 0.2994,-0.299398 0.4403,-0.651631 0.4403,-1.074312 0,-0.42268 -0.1409,-0.792525 -0.4403,-1.091923 -0.29939,-0.299399 -0.66924,-0.457904 -1.09192,-0.457904 -0.42268,0 -0.79252,0.158505 -1.09192,0.457904 -0.2994,0.299398 -0.45791,0.669243 -0.45791,1.091923 0,0.422681 0.15851,0.774914 0.45791,1.074312 z"
       style="stroke-width:0.84536022"
       id="path878" />
  </g>
  <g
     aria-label="提
交"
     style="font-style:normal;font-variant:normal;font-weight:normal;font-stretch:normal;font-size:42.66666794px;line-height:1.25;font-family:KaiTi;-inkscape-font-specification:'KaiTi, Normal';font-variant-ligatures:normal;font-variant-caps:normal;font-variant-numeric:normal;font-feature-settings:normal;text-align:start;letter-spacing:0px;word-spacing:0px;writing-mode:lr-tb;text-anchor:start;fill:#000000;fill-opacity:1;stroke:none"
     id="text2323-3">
    <path
       d="m 284.8191,217.93141 q 2.16667,-0.16667 3.5,-0.5 1.33334,-0.5 2.33334,0.33333 1.16666,0.83334 -1,1.33334 -2,0.5 -4.83334,0 v 4 q 2.33334,1.5 5.66667,2.66666 3.5,1.16667 6.5,1.66667 3,0.33334 1.16667,0.83334 -1.66667,0.5 -3.83334,0.83333 -2.16666,0.5 -3.66666,0.16667 -1.5,-0.33334 -3.33334,-1.66667 -1.66666,-1.5 -4,-3.33334 -2.33333,-1.83333 -5,-3.83333 -1.83333,2.33333 -3,3.66667 -1,1.33333 -3,2.5 -2,1 0,-1.16667 2,-2.16667 3.33334,-5 1.5,-2.83333 1.16666,-3.83333 -0.16666,-1.16667 1.5,-0.33334 1.83334,0.83334 1.33334,1.5 -0.5,0.66667 -1,1.66667 1.66666,1.16667 4.33333,2.5 -0.16667,-7.16667 -0.5,-7.66667 -5.66667,1 -6.66667,1.33334 -1,0.16666 -2.5,-0.83334 -1.33333,-1.16666 0.5,-1 1.83334,0 8,-0.83333 6.33334,-1 8.5,-1.66667 2.33334,-0.83333 4.16667,0.5 1.83333,1.16667 -1.33333,1.5 -3.16667,0.16667 -8.33334,0.66667 z m 2.16667,-9.16667 q -1.66667,0.33334 -5.5,1.16667 -1.16667,1.83333 -2,-1.33333 -0.66667,-3.16667 -1.16667,-5.33334 -0.5,-2.16666 -1.33333,-3 -0.83333,-0.83333 0.16667,-0.83333 1.16666,0 2,0.16667 0.83333,0 4.16666,-0.83334 3.5,-1 4.16667,-1.33333 0.66667,-0.5 1.66667,0.16667 1.16666,0.66666 2.16666,1.5 1.16667,0.83333 0.33334,1.5 -0.83334,0.66666 -1.66667,3 -0.66667,2.16666 -1.33333,4.33333 -0.66667,2 -1.66667,0.83333 z m -16.83333,-3 q 1.5,-0.5 2.5,-0.66666 1,-0.16667 1.5,0.5 0.5,0.66666 -0.83334,1.33333 -1.16666,0.5 -3.16666,1.16667 v 4 q 2.5,-2 3.16666,-1.83334 0.83334,0.16667 -0.16666,1.16667 -0.83334,0.83333 -3,2.5 0,5.83333 0,10.5 0.16666,4.5 -1,5.66667 -1.16667,1.33333 -1.66667,-0.16667 -0.5,-1.5 -2.33333,-3.16666 -1.83334,-1.66667 -0.33334,-1.16667 1.66667,0.5 2.5,0.5 0.83334,-0.16667 0.83334,-3.5 0.16666,-3.33334 0.16666,-6.5 -4.83333,4.16666 -5.66666,5.33333 -0.83334,1 -2.83334,-0.16667 -2,-1.33333 -0.5,-1.5 1.5,-0.16666 3.66667,-1.83333 2.33333,-1.66667 5.33333,-4.33333 v -5 q -2,0.5 -3.33333,0.83333 -1.33333,0.16667 -3,-0.33333 -1.5,-0.5 0,-0.83334 1.66667,-0.5 6.33333,-1.83333 0,-3.33333 -0.16666,-6.16667 0,-2.83333 -0.66667,-3.83333 -0.66667,-1.16667 0.33333,-1 1,0 2.16667,0.66667 1.33333,0.66666 0.83333,1.66666 -0.33333,0.83334 -0.5,2.66667 -0.16666,1.83333 -0.16666,5.33333 z m 10,-5.16666 q 0.16666,1 0.33333,3.16666 2,-0.5 3,-1 1.16667,-0.66666 2.33333,0.16667 1.16667,0.66667 -1.16666,1.33333 -2.16667,0.66667 -3.83334,0.5 0.33334,2.66667 0.5,3.83334 4.5,-1 5.66667,-1.16667 0.66667,-3.83333 0.83333,-5.83333 0.16667,-2 -0.83333,-2 -0.83333,-0.16667 -6.83333,1 z"
       style=""
       id="path881" />
    <path
       d="m 278.65244,273.26475 q 1.83333,1.5 5.5,3.83333 3.83333,2.33333 6.83333,3 3,0.66667 5.83333,1.16667 2.83334,0.5 0.66667,1.16666 -2,0.66667 -5.5,1.16667 -3.5,0.5 -5.83333,-1.5 -2.16667,-1.83333 -8.66667,-7.16667 -3,3.33334 -6.66667,5.16667 -3.66666,1.66667 -7.16666,1.83333 -3.5,0.33334 0,-0.66666 3.5,-1.16667 7,-3.33334 3.5,-2.16666 5,-4.5 -1.5,-1.83333 -3.16667,-3 -1.5,-1.16666 -2.66667,-1.66666 -1.16666,-0.5 0.33334,-0.83334 1.5,-0.33333 2.66666,0.66667 1.16667,1 4.16667,3.33333 1,-1.33333 1.83333,-3.5 1,-2.33333 0.5,-3.66666 -0.33333,-1.33334 1,-0.66667 1.33334,0.5 2.16667,1.33333 0.83333,0.66667 0.16667,1.33334 -0.5,0.66666 -1.5,2.5 -1,1.66666 -2.5,4 z m -9,-16.83334 q 3.33333,-0.33333 9.5,-1.33333 6.16666,-1 8.16666,-1.33333 2.16667,-0.33334 3.83334,1 1.66666,1.16666 0.66666,1.5 -0.83333,0.33333 -4.5,0.33333 -3.5,-0.16667 -7.83333,0.33333 -4.33333,0.5 -7,1 -2.66667,0.33334 -4.83333,0.83334 -2,0.33333 -3.83334,-0.66667 -1.83333,-1.16667 0.33334,-1.16667 2.16666,-0.16666 5.5,-0.5 z m 1.33333,4.16667 q 0,-1.33333 1.33333,-0.5 1.5,0.66667 2.33334,1.66667 0.83333,0.83333 -0.16667,1.16666 -0.83333,0.16667 -3.33333,2.16667 -2.33334,2 -5,3.16667 -2.5,1 -0.33334,-0.66667 2.16667,-1.83333 3.66667,-3.83333 1.66667,-2 1.5,-3.16667 z m 11.33333,-1 q 3.33334,0.5 4.5,1.83333 1.33334,1.33334 1,2.83334 -0.33333,1.33333 -2.5,0.16666 -2,-1.33333 -4.16666,-3.33333 -2.16667,-2.16667 1.16666,-1.5 z m -7.83333,-9.66667 q -1.83333,-2.16666 0.66667,-1.66666 2.66666,0.33333 3.66666,1.5 1,1 0.66667,2.66666 -0.33333,1.5 -1.83333,0.66667 -1.33334,-1 -3.16667,-3.16667 z"
       style=""
       id="path883" />
  </g>
  <g
     aria-label="幹"
     transform="scale(1.0240448,0.97651978)"
     style="font-style:normal;font-variant:normal;font-weight:normal;font-stretch:normal;font-size:136.44213867px;line-height:1.25;font-family:KaiTi;-inkscape-font-specification:'KaiTi, Normal';font-variant-ligatures:normal;font-variant-caps:normal;font-variant-numeric:normal;font-feature-settings:normal;text-align:start;letter-spacing:0px;word-spacing:0px;writing-mode:lr-tb;text-anchor:start;fill:#000000;fill-opacity:1;stroke:none;stroke-width:1.42127228"
     id="text2323-3-1">
    <path
       d="m 90.148824,136.54013 q 0,-5.86275 -0.532977,-11.19252 l -7.994657,2.13191 q -0.532977,4.79679 -2.664885,2.1319 -1.598932,-2.66488 -3.73084,-9.06061 -1.598931,-6.9287 -3.197863,-11.19252 -1.598931,-4.26381 -4.263817,-6.9287 -2.664885,-3.19786 3.197863,-3.19786 5.862748,0 18.654199,-4.263817 1.065954,-5.329771 1.598931,-10.659542 -7.994657,1.065954 -10.659542,0 -2.131909,-1.065955 -1.598931,-1.598932 0.532977,-0.532977 5.862748,-2.131908 5.329771,-1.598931 7.461679,-3.197863 1.065954,-12.79145 -1.065954,-15.456336 -2.131908,-3.197862 0.532977,-3.197862 2.664886,0 6.928702,2.131908 4.796793,2.131908 3.197863,4.263817 -1.59893,1.598931 -3.197863,11.192519 3.730843,-1.598931 6.395723,-2.664885 2.66489,-1.598932 5.32977,0 2.66489,1.598931 -1.59893,4.263816 -3.73084,2.131909 -10.65954,4.796794 -1.598931,5.329771 -2.664885,10.659542 7.994655,-2.131908 9.593585,-3.197862 1.59893,-1.598932 6.92871,2.131908 5.86274,3.197863 6.39572,5.329771 0.53298,2.131909 -2.13191,3.197862 -2.13191,1.06596 -3.73084,6.9287 -1.59893,5.86275 -3.73084,11.19252 -2.13191,5.32977 -3.19786,6.39573 -1.06595,0.53297 -2.66489,-2.13191 -3.730835,0 -7.994652,1.06595 0.532977,5.86275 0.532977,10.65955 10.659545,-2.66489 12.791455,-1.06596 2.1319,1.06596 1.59893,2.66489 -0.53298,1.59893 -14.390385,3.73084 0,10.12656 -0.532977,17.58824 0,6.9287 -1.065955,11.7255 -0.532977,4.79679 -2.664885,3.19786 -1.598931,-1.06595 -2.664886,-4.79679 -1.065954,-4.26382 0,-9.59359 1.598932,-5.86275 1.598932,-16.52229 -15.989313,4.26381 -19.720153,5.86275 -3.73084,1.06595 -5.862748,1.06595 -2.131909,0 -5.862748,-2.66489 -3.73084,-2.66488 1.065954,-2.66488 4.796794,0 30.379695,-6.9287 z m 47.434966,-4.7968 q 0,-6.9287 -1.06596,-12.79145 -5.86275,0 -9.06061,-1.59893 -2.66488,-2.13191 2.13191,-2.66488 5.32977,-0.53298 10.12656,-1.59894 5.32978,-1.59893 8.52764,-2.66488 3.19786,-1.06596 5.86275,1.06595 2.66488,1.59893 1.06595,2.66489 -1.59893,1.06595 -12.25847,3.73084 4.26381,3.19786 3.19786,4.79679 -1.06595,1.06596 -1.59893,7.46168 11.72549,-2.66488 15.98931,-2.66488 4.26382,0 6.9287,1.59893 2.66489,1.06595 2.66489,3.19786 0,2.13191 -7.99466,2.13191 -7.46168,-0.53298 -17.58824,0.53298 0,19.18717 -0.53298,29.84671 -0.53298,10.65955 -2.13191,16.52229 -1.59893,6.39573 -3.19786,1.06596 -1.59893,-4.7968 -1.06595,-46.36901 -15.98932,3.19786 -18.12123,3.19786 -2.1319,0 -6.39572,-2.13191 -3.73084,-2.66488 2.66488,-2.66488 6.92871,0 21.85207,-2.66489 z m 3.73084,-50.632822 q -6.92871,21.319082 -13.85741,29.846722 -6.39572,7.99465 -11.19252,11.19251 -4.26381,2.66489 -5.32977,2.13191 -0.53298,-0.53297 5.86275,-7.46168 6.39572,-7.46168 11.7255,-19.187172 5.86274,-12.258473 6.9287,-19.720153 1.59893,-7.461679 0,-11.192519 -1.06596,-4.263817 0.53297,-4.796794 1.59894,-0.532977 6.92871,2.131909 5.32977,2.664885 3.73084,4.263816 -1.59893,1.065955 -3.73084,7.46168 17.58824,19.187176 22.91801,24.516943 5.86275,5.32977 14.39038,9.06061 9.06062,3.73084 6.39573,4.7968 -2.13191,0.53298 -12.25847,0.53298 -9.59359,0 -11.7255,-3.73084 -2.13191,-3.73084 -8.52763,-13.324432 -6.39573,-9.593588 -12.79145,-16.52229 z M 78.956305,110.95723 q 3.197862,-0.53298 9.06061,-2.66489 5.862748,-2.66489 9.060611,-2.66489 3.730844,0 3.197864,1.59894 0,1.06595 -4.796795,3.73084 -4.263817,2.1319 -15.989313,3.19786 0.532977,4.79679 1.598931,9.59359 12.79145,-3.73084 21.852057,-4.7968 1.06596,-3.19786 2.13191,-9.06061 1.06596,-6.39572 1.06596,-10.126563 0.53297,-3.73084 -3.19787,-3.73084 -3.730835,0 -6.928698,1.065954 -2.664886,0.532977 -18.654199,4.796799 0.532977,3.19786 1.598932,9.06061 z"
       style="stroke-width:1.42127228"
       id="path886" />
  </g>
</svg>
