<?xml version="1.0" encoding="UTF-8" standalone="no"?>
<svg
   xmlns:dc="http://purl.org/dc/elements/1.1/"
   xmlns:cc="http://creativecommons.org/ns#"
   xmlns:rdf="http://www.w3.org/1999/02/22-rdf-syntax-ns#"
   xmlns:svg="http://www.w3.org/2000/svg"
   xmlns="http://www.w3.org/2000/svg"
   xmlns:sodipodi="http://sodipodi.sourceforge.net/DTD/sodipodi-0.dtd"
   xmlns:inkscape="http://www.inkscape.org/namespaces/inkscape"
   fill="none"
   stroke-linecap="square"
   stroke-miterlimit="10"
   viewBox="0 0 288 115"
   version="1.1"
   id="svg1531"
   sodipodi:docname="t.svg"
   inkscape:version="0.92.5 (2060ec1f9f, 2020-04-08)">
  <metadata
     id="metadata1537">
    <rdf:RDF>
      <cc:Work
         rdf:about="">
        <dc:format>image/svg+xml</dc:format>
        <dc:type
           rdf:resource="http://purl.org/dc/dcmitype/StillImage" />
        <dc:title></dc:title>
      </cc:Work>
    </rdf:RDF>
  </metadata>
  <defs
     id="defs1535" />
  <sodipodi:namedview
     pagecolor="#ffffff"
     bordercolor="#666666"
     borderopacity="1"
     objecttolerance="10"
     gridtolerance="10"
     guidetolerance="10"
     inkscape:pageopacity="0"
     inkscape:pageshadow="2"
     inkscape:window-width="1920"
     inkscape:window-height="1017"
     id="namedview1533"
     showgrid="false"
     inkscape:zoom="0.98611111"
     inkscape:cx="144"
     inkscape:cy="179.19014"
     inkscape:window-x="-8"
     inkscape:window-y="-8"
     inkscape:window-maximized="1"
     inkscape:current-layer="g1529" />
  <clipPath
     id="a">
    <path
       d="M0 0h288v115H0V0z"
       id="path1512" />
  </clipPath>
  <g
     clip-path="url(#a)"
     id="g1529">
    <path
       d="M0 0h288v115H0z"
       id="path1515" />
    <path
       fill="#fff"
       d="M12 8.504h264v98.992H12z"
       id="path1517" />
    <path
       stroke="#000"
       stroke-linecap="butt"
       stroke-linejoin="round"
       stroke-width="2"
       d="M12 8.504h264v98.992H12z"
       id="path1519" />
    <path
       fill="#000"
       d="M18.666 15.033h251.627v86.35H18.666z"
       id="path1521" />
    <path
       stroke="#000"
       stroke-linecap="butt"
       stroke-linejoin="round"
       stroke-width="3.332"
       d="M18.666 15.033h251.627v86.35H18.666z"
       id="path1523" />
    <g
       aria-label="00:00"
       style="font-style:normal;font-variant:normal;font-weight:normal;font-stretch:normal;font-size:42.66666794px;line-height:125%;font-family:'DSEG14 Classic';-inkscape-font-specification:'DSEG14 Classic, Normal';font-variant-ligatures:normal;font-variant-caps:normal;font-variant-numeric:normal;font-feature-settings:normal;text-align:start;letter-spacing:0;word-spacing:0;writing-mode:lr-tb;text-anchor:start;fill:#ffffff;stroke-linecap:butt"
       id="text1527">
      <path
         d="m 135.53533,38.903666 h 1.10934 v 6.016 L 132.20733,52.557 h -1.06666 v -6.058667 z m -10.112,25.429334 -4.39466,7.594667 h -1.10934 v -6.016 l 4.43734,-7.637334 h 1.06666 z m -8.40533,-28.928001 1.32267,-1.322666 h 19.88266 l 1.32267,1.322666 -2.64533,2.645334 h -0.85334 -5.80266 -3.92534 -5.80266 -0.85334 z M 140.10067,56.055667 140.314,55.885 h 1.152 V 73.506334 L 140.14333,74.829 137.498,72.183667 v -0.256 -4.48 -8.789334 z m -0.55467,19.370667 -1.32267,1.322667 H 118.34067 L 117.018,75.426334 119.66333,72.781 h 0.85334 5.80266 3.92534 5.80266 0.85334 z m 0.59733,-39.424001 1.32267,1.322666 V 54.989 h -1.152 l -0.21333,-0.170667 -2.60267,-2.602667 v -1.365333 -7.466667 -4.48 -0.256 z M 116.42067,54.775667 116.25,54.989 h -1.152 V 37.324999 l 1.32267,-1.322666 2.64533,2.645333 v 0.256 4.48 8.789334 z m 0,20.053333 -1.32267,-1.322666 V 55.842333 h 1.152 l 0.17067,0.213334 2.64533,2.602666 v 8.789334 4.48 0.256 z"
         style=""
         id="path2089" />
      <path
         d="m 170.36867,38.903666 h 1.10933 v 6.016 L 167.04067,52.557 H 165.974 V 46.498333 Z M 160.25667,64.333 155.862,71.927667 h -1.10933 v -6.016 L 159.19,58.274333 h 1.06667 z m -8.40533,-28.928001 1.32266,-1.322666 h 19.88267 l 1.32267,1.322666 -2.64534,2.645334 H 170.88067 165.078 161.15267 155.35 154.49667 Z M 174.934,56.055667 175.14734,55.885 h 1.152 v 17.621334 l -1.32267,1.322666 -2.64533,-2.645333 v -0.256 -4.48 -8.789334 z m -0.55466,19.370667 -1.32267,1.322667 H 153.174 l -1.32266,-1.322667 2.64533,-2.645334 h 0.85333 5.80267 3.92533 5.80267 0.85333 z m 0.59733,-39.424001 1.32267,1.322666 V 54.989 h -1.152 l -0.21334,-0.170667 -2.60266,-2.602667 v -1.365333 -7.466667 -4.48 -0.256 z M 151.254,54.775667 151.08334,54.989 h -1.152 V 37.324999 l 1.32266,-1.322666 2.64534,2.645333 v 0.256 4.48 8.789334 z m 0,20.053333 -1.32266,-1.322666 V 55.842333 h 1.152 l 0.17066,0.213334 2.64534,2.602666 v 8.789334 4.48 0.256 z"
         style=""
         id="path2091" />
      <path
         d="m 187.23934,46.157 q 0.21333,0.512 0.21333,1.024 0,0.512 -0.21333,1.024 -0.21333,0.512 -0.55467,0.853333 -0.34133,0.341333 -0.85333,0.554667 -0.512,0.213333 -1.024,0.213333 -0.512,0 -1.024,-0.213333 -0.512,-0.213334 -0.85333,-0.554667 -0.34134,-0.341333 -0.55467,-0.853333 -0.21333,-0.512 -0.21333,-1.024 0,-0.512 0.21333,-1.024 0.17067,-0.469334 0.55467,-0.810667 0.42666,-0.426667 0.85333,-0.597333 0.384,-0.170667 1.024,-0.170667 0.64,0 1.024,0.170667 0.42667,0.170666 0.85333,0.597333 0.34134,0.341333 0.55467,0.810667 z m 0,17.578667 q 0.21333,0.512 0.21333,1.024 0,0.512 -0.21333,1.024 -0.21333,0.512 -0.55467,0.853333 -0.34133,0.341334 -0.85333,0.554667 -0.512,0.213333 -1.024,0.213333 -0.512,0 -1.024,-0.213333 -0.512,-0.213333 -0.85333,-0.554667 -0.34134,-0.341333 -0.55467,-0.853333 -0.21333,-0.512 -0.21333,-1.024 0,-0.512 0.21333,-1.024 0.21333,-0.469334 0.55467,-0.810667 0.42666,-0.426667 0.85333,-0.597333 0.384,-0.170667 1.024,-0.170667 0.64,0 1.024,0.170667 0.46933,0.170666 0.85333,0.597333 0.34134,0.341333 0.55467,0.810667 z"
         style=""
         id="path2093" />
      <path
         d="m 213.70201,38.903666 h 1.10933 v 6.016 L 210.37401,52.557 h -1.06667 v -6.058667 z m -10.112,25.429334 -4.39467,7.594667 h -1.10933 v -6.016 l 4.43733,-7.637334 h 1.06667 z m -8.40534,-28.928001 1.32267,-1.322666 h 19.88267 l 1.32266,1.322666 -2.64533,2.645334 h -0.85333 -5.80267 -3.92533 -5.80267 -0.85333 z m 23.08267,20.650668 0.21333,-0.170667 h 1.152 v 17.621334 l -1.32266,1.322666 -2.64534,-2.645333 v -0.256 -4.48 -8.789334 z m -0.55467,19.370667 -1.32266,1.322667 h -19.88267 l -1.32267,-1.322667 2.64534,-2.645334 h 0.85333 5.80267 3.92533 5.80267 0.85333 z m 0.59734,-39.424001 1.32266,1.322666 V 54.989 h -1.152 l -0.21333,-0.170667 -2.60267,-2.602667 v -1.365333 -7.466667 -4.48 -0.256 z M 194.58734,54.775667 194.41667,54.989 h -1.152 V 37.324999 l 1.32267,-1.322666 2.64533,2.645333 v 0.256 4.48 8.789334 z m 0,20.053333 -1.32267,-1.322666 V 55.842333 h 1.152 l 0.17067,0.213334 2.64533,2.602666 v 8.789334 4.48 0.256 z"
         style=""
         id="path2095" />
      <path
         d="m 248.53534,38.903666 h 1.10934 v 6.016 L 245.20734,52.557 h -1.06666 v -6.058667 z m -10.112,25.429334 -4.39466,7.594667 h -1.10934 v -6.016 l 4.43734,-7.637334 h 1.06666 z m -8.40533,-28.928001 1.32267,-1.322666 h 19.88266 l 1.32267,1.322666 -2.64533,2.645334 h -0.85334 -5.80266 -3.92534 -5.80266 -0.85334 z m 23.08267,20.650668 0.21333,-0.170667 h 1.152 v 17.621334 l -1.32267,1.322666 -2.64533,-2.645333 v -0.256 -4.48 -8.789334 z m -0.55467,19.370667 -1.32267,1.322667 h -19.88266 l -1.32267,-1.322667 2.64533,-2.645334 h 0.85334 5.80266 3.92534 5.80266 0.85334 z m 0.59733,-39.424001 1.32267,1.322666 V 54.989 h -1.152 l -0.21333,-0.170667 -2.60267,-2.602667 v -1.365333 -7.466667 -4.48 -0.256 z M 229.42068,54.775667 229.25001,54.989 h -1.152 V 37.324999 l 1.32267,-1.322666 2.64533,2.645333 v 0.256 4.48 8.789334 z m 0,20.053333 -1.32267,-1.322666 V 55.842333 h 1.152 l 0.17067,0.213334 2.64533,2.602666 v 8.789334 4.48 0.256 z"
         style=""
         id="path2097" />
    </g>
  </g>
</svg>
