<?xml version="1.0" encoding="UTF-8" standalone="no"?>
<svg
   xmlns:dc="http://purl.org/dc/elements/1.1/"
   xmlns:cc="http://creativecommons.org/ns#"
   xmlns:rdf="http://www.w3.org/1999/02/22-rdf-syntax-ns#"
   xmlns:svg="http://www.w3.org/2000/svg"
   xmlns="http://www.w3.org/2000/svg"
   xmlns:sodipodi="http://sodipodi.sourceforge.net/DTD/sodipodi-0.dtd"
   xmlns:inkscape="http://www.inkscape.org/namespaces/inkscape"
   fill="none"
   stroke-linecap="square"
   stroke-miterlimit="10"
   viewBox="0 0 288 115"
   version="1.1"
   id="svg21"
   sodipodi:docname="Two Factor.svg"
   inkscape:version="0.92.5 (2060ec1f9f, 2020-04-08)">
  <metadata
     id="metadata27">
    <rdf:RDF>
      <cc:Work
         rdf:about="">
        <dc:format>image/svg+xml</dc:format>
        <dc:type
           rdf:resource="http://purl.org/dc/dcmitype/StillImage" />
      </cc:Work>
    </rdf:RDF>
  </metadata>
  <defs
     id="defs25" />
  <sodipodi:namedview
     pagecolor="#ffffff"
     bordercolor="#666666"
     borderopacity="1"
     objecttolerance="10"
     gridtolerance="10"
     guidetolerance="10"
     inkscape:pageopacity="0"
     inkscape:pageshadow="2"
     inkscape:window-width="958"
     inkscape:window-height="1008"
     id="namedview23"
     showgrid="false"
     inkscape:zoom="0.98611111"
     inkscape:cx="144"
     inkscape:cy="98.06338"
     inkscape:window-x="953"
     inkscape:window-y="0"
     inkscape:window-maximized="0"
     inkscape:current-layer="text17" />
  <clipPath
     id="a">
    <path
       d="M0 0h288v115H0V0z"
       id="path2" />
  </clipPath>
  <g
     clip-path="url(#a)"
     id="g19">
    <path
       d="M0 0h288v115H0z"
       id="path5" />
    <path
       fill="#fff"
       d="M12 8.504h264v98.992H12z"
       id="path7" />
    <path
       stroke="#000"
       stroke-linecap="butt"
       stroke-linejoin="round"
       stroke-width="2"
       d="M12 8.504h264v98.992H12z"
       id="path9" />
    <path
       fill="#000"
       d="M18.666 15.033h251.627v86.35H18.666z"
       id="path11" />
    <path
       stroke="#000"
       stroke-linecap="butt"
       stroke-linejoin="round"
       stroke-width="3.332"
       d="M18.666 15.033h251.627v86.35H18.666z"
       id="path13" />
    <g
       aria-label="000 000."
       style="font-style:normal;font-variant:normal;font-weight:normal;font-stretch:normal;font-size:37.33333206px;line-height:125%;font-family:'DSEG14 Classic';-inkscape-font-specification:'DSEG14 Classic, Normal';font-variant-ligatures:normal;font-variant-caps:normal;font-variant-numeric:normal;font-feature-settings:normal;text-align:start;letter-spacing:0;word-spacing:0;writing-mode:lr-tb;text-anchor:start;fill:#ffffff;stroke-linecap:butt"
       id="text17">
      <path
         d="m 83.804782,43.690678 h 0.970667 v 5.264 l -3.882667,6.682666 h -0.933333 v -5.301333 z m -8.848,22.250666 -3.845333,6.645333 h -0.970666 v -5.264 l 3.882666,-6.682666 h 0.933333 z m -7.354666,-25.311999 1.157333,-1.157333 h 17.397333 l 1.157333,1.157333 -2.314666,2.314666 h -0.746667 -5.077333 -3.434667 -5.077333 -0.746666 z m 20.197333,18.069333 0.186666,-0.149334 h 1.008 V 73.96801 l -1.157333,1.157334 -2.314667,-2.314667 v -0.224 -3.92 -7.690666 z M 87.314115,75.64801 86.156782,76.805344 H 68.759449 l -1.157333,-1.157334 2.314667,-2.314666 h 0.746666 5.077333 3.434667 5.077333 0.746667 z m 0.522667,-34.495998 1.157333,1.157333 v 15.455999 h -1.008 l -0.186666,-0.149333 -2.277334,-2.277333 v -1.194667 -6.533333 -3.92 -0.224 z m -20.757333,16.426666 -0.149333,0.186666 h -1.008 V 42.309345 l 1.157333,-1.157333 2.314667,2.314666 v 0.224 3.92 7.690666 z m 0,17.546666 -1.157333,-1.157334 V 58.512011 h 1.008 l 0.149333,0.186667 2.314667,2.277333 v 7.690666 3.92 0.224 z"
         style=""
         id="path843" />
      <path
         d="m 114.28395,43.690678 h 0.97066 v 5.264 l -3.88266,6.682666 h -0.93334 v -5.301333 z m -8.848,22.250666 -3.84533,6.645333 h -0.97067 v -5.264 l 3.88267,-6.682666 h 0.93333 z m -7.354668,-25.311999 1.157333,-1.157333 h 17.397335 l 1.15733,1.157333 -2.31467,2.314666 h -0.74666 -5.07734 -3.43466 -5.07733 -0.74667 z m 20.197328,18.069333 0.18667,-0.149334 h 1.008 V 73.96801 l -1.15733,1.157334 -2.31467,-2.314667 v -0.224 -3.92 -7.690666 z m -0.48533,16.949332 -1.15733,1.157334 H 99.238615 l -1.157333,-1.157334 2.314668,-2.314666 h 0.74667 5.07733 3.43466 5.07734 0.74666 z m 0.52267,-34.495998 1.15733,1.157333 v 15.455999 h -1.008 l -0.18667,-0.149333 -2.27733,-2.277333 v -1.194667 -6.533333 -3.92 -0.224 z m -20.757335,16.426666 -0.149333,0.186666 h -1.008 V 42.309345 l 1.157333,-1.157333 2.314667,2.314666 v 0.224 3.92 7.690666 z m 0,17.546666 -1.157333,-1.157334 V 58.512011 h 1.008 l 0.149333,0.186667 2.314667,2.277333 v 7.690666 3.92 0.224 z"
         style=""
         id="path845" />
      <path
         d="m 144.76311,43.690678 h 0.97067 v 5.264 l -3.88267,6.682666 h -0.93333 v -5.301333 z m -8.848,22.250666 -3.84533,6.645333 h -0.97067 v -5.264 l 3.88267,-6.682666 h 0.93333 z m -7.35466,-25.311999 1.15733,-1.157333 h 17.39733 l 1.15734,1.157333 -2.31467,2.314666 h -0.74667 -5.07733 -3.43467 -5.07733 -0.74667 z m 20.19733,18.069333 0.18667,-0.149334 h 1.008 V 73.96801 l -1.15734,1.157334 -2.31466,-2.314667 v -0.224 -3.92 -7.690666 z m -0.48533,16.949332 -1.15734,1.157334 h -17.39733 l -1.15733,-1.157334 2.31466,-2.314666 h 0.74667 5.07733 3.43467 5.07733 0.74667 z m 0.52266,-34.495998 1.15734,1.157333 v 15.455999 h -1.008 l -0.18667,-0.149333 -2.27733,-2.277333 v -1.194667 -6.533333 -3.92 -0.224 z m -20.75733,16.426666 -0.14933,0.186666 h -1.008 V 42.309345 l 1.15733,-1.157333 2.31467,2.314666 v 0.224 3.92 7.690666 z m 0,17.546666 -1.15733,-1.157334 V 58.512011 h 1.008 l 0.14933,0.186667 2.31467,2.277333 v 7.690666 3.92 0.224 z"
         style=""
         id="path847" />
      <path
         d="m 182.67978,43.690678 h 0.97067 v 5.264 l -3.88267,6.682666 h -0.93333 v -5.301333 z m -8.848,22.250666 -3.84533,6.645333 h -0.97067 v -5.264 l 3.88267,-6.682666 h 0.93333 z m -7.35466,-25.311999 1.15733,-1.157333 h 17.39733 l 1.15734,1.157333 -2.31467,2.314666 h -0.74667 -5.07733 -3.43467 -5.07733 -0.74667 z m 20.19733,18.069333 0.18667,-0.149334 h 1.008 V 73.96801 l -1.15734,1.157334 -2.31466,-2.314667 v -0.224 -3.92 -7.690666 z m -0.48533,16.949332 -1.15734,1.157334 h -17.39733 l -1.15733,-1.157334 2.31466,-2.314666 h 0.74667 5.07733 3.43467 5.07733 0.74667 z m 0.52266,-34.495998 1.15734,1.157333 v 15.455999 h -1.008 l -0.18667,-0.149333 -2.27733,-2.277333 v -1.194667 -6.533333 -3.92 -0.224 z m -20.75733,16.426666 -0.14933,0.186666 h -1.008 V 42.309345 l 1.15733,-1.157333 2.31467,2.314666 v 0.224 3.92 7.690666 z m 0,17.546666 -1.15733,-1.157334 V 58.512011 h 1.008 l 0.14933,0.186667 2.31467,2.277333 v 7.690666 3.92 0.224 z"
         style=""
         id="path849" />
      <path
         d="m 213.15894,43.690678 h 0.97067 v 5.264 l -3.88267,6.682666 h -0.93333 v -5.301333 z m -8.848,22.250666 -3.84533,6.645333 h -0.97067 v -5.264 l 3.88267,-6.682666 h 0.93333 z m -7.35467,-25.311999 1.15734,-1.157333 h 17.39733 l 1.15733,1.157333 -2.31466,2.314666 h -0.74667 -5.07733 -3.43467 -5.07733 -0.74667 z m 20.19734,18.069333 0.18666,-0.149334 h 1.008 V 73.96801 l -1.15733,1.157334 -2.31467,-2.314667 v -0.224 -3.92 -7.690666 z m -0.48534,16.949332 -1.15733,1.157334 h -17.39733 l -1.15734,-1.157334 2.31467,-2.314666 h 0.74667 5.07733 3.43467 5.07733 0.74667 z m 0.52267,-34.495998 1.15733,1.157333 v 15.455999 h -1.008 l -0.18666,-0.149333 -2.27734,-2.277333 v -1.194667 -6.533333 -3.92 -0.224 z m -20.75733,16.426666 -0.14934,0.186666 h -1.008 V 42.309345 l 1.15734,-1.157333 2.31466,2.314666 v 0.224 3.92 7.690666 z m 0,17.546666 -1.15734,-1.157334 V 58.512011 h 1.008 l 0.14934,0.186667 2.31466,2.277333 v 7.690666 3.92 0.224 z"
         style=""
         id="path851" />
      <path
         d="m 243.63811,43.690678 h 0.97067 v 5.264 l -3.88267,6.682666 h -0.93333 v -5.301333 z m -8.848,22.250666 -3.84533,6.645333 h -0.97067 v -5.264 l 3.88267,-6.682666 h 0.93333 z m -7.35467,-25.311999 1.15734,-1.157333 h 17.39733 l 1.15733,1.157333 -2.31466,2.314666 h -0.74667 -5.07733 -3.43467 -5.07733 -0.74667 z m 20.19734,18.069333 0.18666,-0.149334 h 1.008 V 73.96801 l -1.15733,1.157334 -2.31467,-2.314667 v -0.224 -3.92 -7.690666 z m -0.48534,16.949332 -1.15733,1.157334 h -17.39733 l -1.15734,-1.157334 2.31467,-2.314666 h 0.74667 5.07733 3.43467 5.07733 0.74667 z m 0.52267,-34.495998 1.15733,1.157333 v 15.455999 h -1.008 l -0.18666,-0.149333 -2.27734,-2.277333 v -1.194667 -6.533333 -3.92 -0.224 z m -20.75733,16.426666 -0.14934,0.186666 h -1.008 V 42.309345 l 1.15734,-1.157333 2.31466,2.314666 v 0.224 3.92 7.690666 z m 0,17.546666 -1.15734,-1.157334 V 58.512011 h 1.008 l 0.14934,0.186667 2.31466,2.277333 v 7.690666 3.92 0.224 z"
         style=""
         id="path853" />
      <path
         d="m 254.66662,73.594677 q 0.18666,0.448 0.18666,0.896 0,0.448 -0.18666,0.896 -0.18667,0.448 -0.48534,0.746667 -0.29866,0.298666 -0.74666,0.485333 -0.448,0.186667 -0.896,0.186667 -0.448,0 -0.896,-0.186667 -0.448,-0.186667 -0.74667,-0.485333 -0.29867,-0.298667 -0.48533,-0.746667 -0.18667,-0.448 -0.18667,-0.896 0,-0.448 0.18667,-0.896 0.18666,-0.448 0.48533,-0.746667 0.29867,-0.298666 0.74667,-0.485333 0.448,-0.186667 0.896,-0.186667 0.448,0 0.896,0.186667 0.448,0.186667 0.74666,0.485333 0.29867,0.298667 0.48534,0.746667 z"
         style=""
         id="path855" />
    </g>
    <g
       aria-label="█ █ █ █ █ █ "
       transform="matrix(0,-0.82801232,1.2077115,0,0,0)"
       style="font-style:normal;font-weight:normal;font-size:16.51217079px;line-height:1.25;font-family:sans-serif;letter-spacing:0px;word-spacing:0px;fill:#ffffff;fill-opacity:1;stroke:none;stroke-width:0.41280428"
       id="text839">
      <path
         d="m -116.47359,37.917112 v -20.03552 h 12.06163 v 20.03552 z"
         style="stroke-width:0.41280428"
         id="path858" />
      <path
         d="m -100.18717,37.917112 v -20.03552 h 12.061627 v 20.03552 z"
         style="stroke-width:0.41280428"
         id="path860" />
      <path
         d="m -83.900749,37.917112 v -20.03552 h 12.061625 v 20.03552 z"
         style="stroke-width:0.41280428"
         id="path862" />
      <path
         d="m -67.61433,37.917112 v -20.03552 h 12.061625 v 20.03552 z"
         style="stroke-width:0.41280428"
         id="path864" />
      <path
         d="m -51.327911,37.917112 v -20.03552 h 12.061625 v 20.03552 z"
         style="stroke-width:0.41280428"
         id="path866" />
      <path
         d="m -35.041496,37.917112 v -20.03552 h 12.061625 v 20.03552 z"
         style="stroke-width:0.41280428"
         id="path868" />
    </g>
  </g>
</svg>
