<?xml version="1.0" encoding="UTF-8" standalone="no"?>
<svg
   xmlns:dc="http://purl.org/dc/elements/1.1/"
   xmlns:cc="http://creativecommons.org/ns#"
   xmlns:rdf="http://www.w3.org/1999/02/22-rdf-syntax-ns#"
   xmlns:svg="http://www.w3.org/2000/svg"
   xmlns="http://www.w3.org/2000/svg"
   xmlns:sodipodi="http://sodipodi.sourceforge.net/DTD/sodipodi-0.dtd"
   xmlns:inkscape="http://www.inkscape.org/namespaces/inkscape"
   fill="none"
   stroke-linecap="square"
   stroke-miterlimit="10"
   viewBox="0 0 288 115"
   version="1.1"
   id="svg914"
   sodipodi:docname="Current Local Time.svg"
   inkscape:version="0.92.5 (2060ec1f9f, 2020-04-08)">
  <metadata
     id="metadata920">
    <rdf:RDF>
      <cc:Work
         rdf:about="">
        <dc:format>image/svg+xml</dc:format>
        <dc:type
           rdf:resource="http://purl.org/dc/dcmitype/StillImage" />
        <dc:title />
      </cc:Work>
    </rdf:RDF>
  </metadata>
  <defs
     id="defs918" />
  <sodipodi:namedview
     pagecolor="#ffffff"
     bordercolor="#666666"
     borderopacity="1"
     objecttolerance="10"
     gridtolerance="10"
     guidetolerance="10"
     inkscape:pageopacity="0"
     inkscape:pageshadow="2"
     inkscape:window-width="1214"
     inkscape:window-height="832"
     id="namedview916"
     showgrid="false"
     inkscape:zoom="1.9722222"
     inkscape:cx="213.25726"
     inkscape:cy="55.151171"
     inkscape:window-x="68"
     inkscape:window-y="122"
     inkscape:window-maximized="0"
     inkscape:current-layer="g912" />
  <clipPath
     id="a">
    <path
       d="M0 0h288v115H0V0z"
       id="path895" />
  </clipPath>
  <g
     clip-path="url(#a)"
     id="g912">
    <path
       d="M0 0h288v115H0z"
       id="path898" />
    <path
       fill="#fff"
       d="M12 8.504h264v98.992H12z"
       id="path900" />
    <path
       stroke="#000"
       stroke-linecap="butt"
       stroke-linejoin="round"
       stroke-width="2"
       d="M12 8.504h264v98.992H12z"
       id="path902" />
    <path
       d="M18.666 15.033h251.627v86.35H18.666z"
       id="path904"
       fill="#000" />
    <path
       stroke="#000"
       stroke-linecap="butt"
       stroke-linejoin="round"
       stroke-width="3.332"
       d="M18.666 15.033h251.627v86.35H18.666z"
       id="path906" />
    <g
       aria-label="█ █ █ █ █ █ "
       transform="matrix(0,-0.82801232,1.2077115,0,1.9570329e-4,4.3252537e-4)"
       style="font-style:normal;font-weight:normal;font-size:16.51217079px;line-height:1.25;font-family:sans-serif;letter-spacing:0px;word-spacing:0px;fill:#ffffff;fill-opacity:1;stroke:none;stroke-width:0.41280428"
       id="text839">
      <path
         inkscape:connector-curvature="0"
         d="m -116.47359,37.917112 v -20.03552 h 12.06163 v 20.03552 z"
         style="stroke-width:0.41280428"
         id="path858" />
      <path
         inkscape:connector-curvature="0"
         d="m -100.18717,37.917112 v -20.03552 h 12.061627 v 20.03552 z"
         style="stroke-width:0.41280428"
         id="path860" />
      <path
         inkscape:connector-curvature="0"
         d="m -83.900749,37.917112 v -20.03552 h 12.061625 v 20.03552 z"
         style="stroke-width:0.41280428"
         id="path862" />
      <path
         inkscape:connector-curvature="0"
         d="m -67.61433,37.917112 v -20.03552 h 12.061625 v 20.03552 z"
         style="stroke-width:0.41280428"
         id="path864" />
      <path
         inkscape:connector-curvature="0"
         d="m -51.327911,37.917112 v -20.03552 h 12.061625 v 20.03552 z"
         style="stroke-width:0.41280428"
         id="path866" />
      <path
         inkscape:connector-curvature="0"
         d="m -35.041496,37.917112 v -20.03552 h 12.061625 v 20.03552 z"
         style="stroke-width:0.41280428"
         id="path868" />
    </g>
    <g
       aria-label="12:17:00"
       style="font-style:normal;font-variant:normal;font-weight:normal;font-stretch:normal;font-size:40px;line-height:1.25;font-family:'DSEG7 Modern';-inkscape-font-specification:'DSEG7 Modern';letter-spacing:0px;word-spacing:0px;fill:#ffffff;fill-opacity:1;stroke:none"
       id="text29">
      <path
         d="m 71.17972,57.065916 2.12,1.2 v 18.08 0.08 l -3.72,-2.16 v -14.44 z m 1.36,-18.84 q 0.76,0.48 0.76,1.4 v 17.68 l -3.72,-2.12 v -11.84 z"
         style=""
         id="path31" />
      <path
         d="m 103.15597,56.665916 -1.84,3.16 h -16.36 l -0.92,-0.52 1.84,-3.16 h 16.36 z m -2.56,17.6 5.12,2.96 q -0.48,0.76 -1.4,0.76 h -20.56 l 2.12,-3.72 z m -17.8,3.72 q -0.64,-0.04 -1.12,-0.48 -0.44,-0.48 -0.44,-1.16 v -17.68 l 3.72,2.12 v 13.48 z m 22.4,-39.76 q 0.76,0.48 0.76,1.4 v 17.68 l -3.72,-2.12 v -11.84 z m -18.6,3.48 -5.12,-2.96 q 0.48,-0.76 1.4,-0.76 h 21.44 0.08 l -2.16,3.72 z"
         style=""
         id="path33" />
      <path
         d="m 116.21222,49.305916 q 0.2,0.48 0.2,0.96 0,0.48 -0.2,0.96 -0.2,0.48 -0.52,0.8 -0.32,0.32 -0.8,0.52 -0.48,0.2 -0.96,0.2 -0.48,0 -0.96,-0.2 -0.48,-0.2 -0.8,-0.52 -0.32,-0.32 -0.52,-0.8 -0.2,-0.48 -0.2,-0.96 0,-0.48 0.2,-0.96 0.2,-0.44 0.52,-0.76 0.4,-0.36 0.8,-0.56 0.36,-0.16 0.96,-0.16 0.6,0 0.96,0.16 0.44,0.2 0.8,0.56 0.32,0.32 0.52,0.76 z m 0,16.48 q 0.2,0.48 0.2,0.96 0,0.48 -0.2,0.96 -0.2,0.48 -0.52,0.8 -0.32,0.32 -0.8,0.52 -0.48,0.2 -0.96,0.2 -0.48,0 -0.96,-0.2 -0.48,-0.2 -0.8,-0.52 -0.32,-0.32 -0.52,-0.8 -0.2,-0.48 -0.2,-0.96 0,-0.48 0.2,-0.96 0.2,-0.44 0.52,-0.76 0.4,-0.4 0.8,-0.56 0.36,-0.16 0.96,-0.16 0.6,0 0.96,0.16 0.44,0.16 0.8,0.56 0.32,0.32 0.52,0.76 z"
         style=""
         id="path35" />
      <path
         d="m 144.46097,57.065916 2.12,1.2 v 18.08 0.08 l -3.72,-2.16 v -14.44 z m 1.36,-18.84 q 0.76,0.48 0.76,1.4 v 17.68 l -3.72,-2.12 v -11.84 z"
         style=""
         id="path37" />
      <path
         d="m 156.63722,58.905916 -2.12,-1.2 v -18.08 -0.08 l 3.72,2.16 v 14.44 z m 20.48,-1.84 2.12,1.2 v 18.08 0.08 l -3.72,-2.16 v -14.44 z m 1.36,-18.84 q 0.76,0.48 0.76,1.4 v 17.68 l -3.72,-2.12 v -11.84 z m -18.6,3.48 -5.12,-2.96 q 0.48,-0.76 1.4,-0.76 h 21.44 0.08 l -2.16,3.72 z"
         style=""
         id="path39" />
      <path
         d="m 189.49347,49.305916 q 0.2,0.48 0.2,0.96 0,0.48 -0.2,0.96 -0.2,0.48 -0.52,0.8 -0.32,0.32 -0.8,0.52 -0.48,0.2 -0.96,0.2 -0.48,0 -0.96,-0.2 -0.48,-0.2 -0.8,-0.52 -0.32,-0.32 -0.52,-0.8 -0.2,-0.48 -0.2,-0.96 0,-0.48 0.2,-0.96 0.2,-0.44 0.52,-0.76 0.4,-0.36 0.8,-0.56 0.36,-0.16 0.96,-0.16 0.6,0 0.96,0.16 0.44,0.2 0.8,0.56 0.32,0.32 0.52,0.76 z m 0,16.48 q 0.2,0.48 0.2,0.96 0,0.48 -0.2,0.96 -0.2,0.48 -0.52,0.8 -0.32,0.32 -0.8,0.52 -0.48,0.2 -0.96,0.2 -0.48,0 -0.96,-0.2 -0.48,-0.2 -0.8,-0.52 -0.32,-0.32 -0.52,-0.8 -0.2,-0.48 -0.2,-0.96 0,-0.48 0.2,-0.96 0.2,-0.44 0.52,-0.76 0.4,-0.4 0.8,-0.56 0.36,-0.16 0.96,-0.16 0.6,0 0.96,0.16 0.44,0.16 0.8,0.56 0.32,0.32 0.52,0.76 z"
         style=""
         id="path41" />
      <path
         d="m 197.26222,58.905916 -2.12,-1.2 v -18.08 -0.08 l 3.72,2.16 v 14.44 z m 20.48,-1.84 2.12,1.2 v 18.08 0.08 l -3.72,-2.16 v -14.44 z m -3.24,17.2 5.12,2.96 q -0.48,0.76 -1.4,0.76 h -20.56 l 2.12,-3.72 z m -17.8,3.72 q -0.64,-0.04 -1.12,-0.48 -0.44,-0.48 -0.44,-1.16 v -17.68 l 3.72,2.12 v 13.48 z m 22.4,-39.76 q 0.76,0.48 0.76,1.4 v 17.68 l -3.72,-2.12 v -11.84 z m -18.6,3.48 -5.12,-2.96 q 0.48,-0.76 1.4,-0.76 h 21.44 0.08 l -2.16,3.72 z"
         style=""
         id="path43" />
      <path
         d="m 229.91847,58.905916 -2.12,-1.2 v -18.08 -0.08 l 3.72,2.16 v 14.44 z m 20.48,-1.84 2.12,1.2 v 18.08 0.08 l -3.72,-2.16 v -14.44 z m -3.24,17.2 5.12,2.96 q -0.48,0.76 -1.4,0.76 h -20.56 l 2.12,-3.72 z m -17.8,3.72 q -0.64,-0.04 -1.12,-0.48 -0.44,-0.48 -0.44,-1.16 v -17.68 l 3.72,2.12 v 13.48 z m 22.4,-39.76 q 0.76,0.48 0.76,1.4 v 17.68 l -3.72,-2.12 v -11.84 z m -18.6,3.48 -5.12,-2.96 q 0.48,-0.76 1.4,-0.76 h 21.44 0.08 l -2.16,3.72 z"
         style=""
         id="path45" />
    </g>
  </g>
</svg>
