<?xml version="1.0" encoding="UTF-8" standalone="no"?>
<svg
   xmlns:dc="http://purl.org/dc/elements/1.1/"
   xmlns:cc="http://creativecommons.org/ns#"
   xmlns:rdf="http://www.w3.org/1999/02/22-rdf-syntax-ns#"
   xmlns:svg="http://www.w3.org/2000/svg"
   xmlns="http://www.w3.org/2000/svg"
   xmlns:sodipodi="http://sodipodi.sourceforge.net/DTD/sodipodi-0.dtd"
   xmlns:inkscape="http://www.inkscape.org/namespaces/inkscape"
   fill="none"
   stroke-linecap="square"
   stroke-miterlimit="10"
   viewBox="0 0 288 115"
   version="1.1"
   id="svg21"
   sodipodi:docname="Main Disp.svg"
   inkscape:version="0.92.5 (2060ec1f9f, 2020-04-08)">
  <metadata
     id="metadata27">
    <rdf:RDF>
      <cc:Work
         rdf:about="">
        <dc:format>image/svg+xml</dc:format>
        <dc:type
           rdf:resource="http://purl.org/dc/dcmitype/StillImage" />
      </cc:Work>
    </rdf:RDF>
  </metadata>
  <defs
     id="defs25" />
  <sodipodi:namedview
     pagecolor="#ffffff"
     bordercolor="#666666"
     borderopacity="1"
     objecttolerance="10"
     gridtolerance="10"
     guidetolerance="10"
     inkscape:pageopacity="0"
     inkscape:pageshadow="2"
     inkscape:window-width="958"
     inkscape:window-height="1008"
     id="namedview23"
     showgrid="false"
     inkscape:zoom="1.3945717"
     inkscape:cx="140.86286"
     inkscape:cy="-111.70584"
     inkscape:window-x="953"
     inkscape:window-y="0"
     inkscape:window-maximized="0"
     inkscape:current-layer="g19" />
  <clipPath
     id="a">
    <path
       d="M0 0h288v115H0V0z"
       id="path2" />
  </clipPath>
  <g
     clip-path="url(#a)"
     id="g19">
    <path
       d="M0 0h288v115H0z"
       id="path5" />
    <path
       d="M12 8.504h264v98.992H12z"
       id="path7"
       fill="#fff" />
    <path
       d="M12 8.504h264v98.992H12z"
       id="path9"
       stroke-linejoin="round"
       stroke-linecap="butt"
       stroke-width="2"
       stroke="#000" />
    <path
       d="M18.666 15.033h251.627v86.35H18.666z"
       id="path11"
       fill="#000" />
    <path
       d="M18.666 15.033h251.627v86.35H18.666z"
       id="path13"
       stroke-linejoin="round"
       stroke-linecap="butt"
       stroke-width="3.332"
       stroke="#000" />
    <g
       aria-label="12345678."
       transform="scale(0.98743062,1.0127294)"
       style="font-style:normal;font-variant:normal;font-weight:normal;font-stretch:normal;font-size:37.73600006px;line-height:1.25;font-family:'DSEG14 Classic';-inkscape-font-specification:'DSEG14 Classic, Normal';font-variant-ligatures:normal;font-variant-caps:normal;font-variant-numeric:normal;font-feature-settings:normal;text-align:start;letter-spacing:0px;word-spacing:0px;writing-mode:lr-tb;text-anchor:start;fill:#ffffff;fill-opacity:1;stroke:none;stroke-width:1.24093068"
       id="text839">
      <path
         d="m 46.432807,58.446026 0.18868,-0.150944 h 1.018872 V 73.88005 l -1.169816,1.169816 -2.339632,-2.339632 v -0.226416 -3.96228 -7.773616 z m 0.03774,-17.73592 1.169816,1.169816 v 15.622704 h -1.018872 l -0.18868,-0.150944 -2.301896,-2.301896 v -1.207552 -6.6038 -3.96228 -0.226416 z"
         style=""
         id="path849" />
      <path
         d="m 74.938818,56.14413 1.773592,1.773592 -1.773592,1.735856 v -0.03774 h -0.679248 -0.07547 -4.867944 -0.792456 -0.264152 l -1.018872,-1.735856 1.018872,-1.735856 h 0.264152 0.792456 0.490568 z m -18.11328,1.735856 1.811328,-1.773592 v 0.03774 h 5.132096 1.547176 l 1.018872,1.735856 -1.018872,1.735856 h -5.924552 -0.113208 -0.641512 v 0.03774 z m 0,-17.698184 1.169816,-1.169816 H 75.58033 l 1.169816,1.169816 -2.339632,2.339632 H 73.655794 68.523698 65.051986 59.91989 59.16517 Z M 76.750146,75.57817 75.58033,76.747986 H 57.995354 L 56.825538,75.57817 59.16517,73.238538 h 0.75472 5.132096 3.471712 5.132096 0.75472 z m 0.528304,-34.868064 1.169816,1.169816 v 15.622704 h -1.018872 l -0.18868,-0.150944 -2.301896,-2.301896 v -1.207552 -6.6038 -3.96228 -0.226416 z M 56.297234,75.049866 55.127418,73.88005 V 58.257346 h 1.018872 l 0.150944,0.18868 2.339632,2.301896 v 7.773616 3.96228 0.226416 z"
         style=""
         id="path851" />
      <path
         d="m 105.74673,56.14413 1.77359,1.773592 -1.77359,1.735856 v -0.03774 h -0.67925 -0.0755 -4.86795 -0.792455 -0.264152 l -1.018872,-1.735856 1.018872,-1.735856 h 0.264152 0.792455 0.49057 z m -18.113285,1.735856 1.811328,-1.773592 v 0.03774 h 5.132096 1.547176 l 1.018872,1.735856 -1.018872,1.735856 h -5.924552 -0.113208 -0.641512 v 0.03774 z m 0,-17.698184 1.169816,-1.169816 h 17.584979 l 1.16981,1.169816 -2.33963,2.339632 h -0.75472 -5.132095 -3.471712 -5.132096 -0.75472 z m 20.415175,18.264224 0.18868,-0.150944 h 1.01887 V 73.88005 l -1.16981,1.169816 -2.33963,-2.339632 v -0.226416 -3.96228 -7.773616 z m -0.49057,17.132144 -1.16981,1.169816 H 88.803261 l -1.169816,-1.169816 2.339632,-2.339632 h 0.75472 5.132096 3.471712 5.132095 0.75472 z m 0.52831,-34.868064 1.16981,1.169816 v 15.622704 h -1.01887 l -0.18868,-0.150944 -2.30189,-2.301896 v -1.207552 -6.6038 -3.96228 -0.226416 z"
         style=""
         id="path853" />
      <path
         d="m 136.55463,56.14413 1.77359,1.773592 -1.77359,1.735856 v -0.03774 h -0.67925 -0.0755 -4.86794 -0.79246 -0.26415 l -1.01887,-1.735856 1.01887,-1.735856 h 0.26415 0.79246 0.49057 z m -18.11328,1.735856 1.81133,-1.773592 v 0.03774 h 5.1321 1.54717 l 1.01887,1.735856 -1.01887,1.735856 h -5.92455 -0.11321 -0.64151 v 0.03774 z m 20.41518,0.56604 0.18868,-0.150944 h 1.01887 V 73.88005 l -1.16982,1.169816 -2.33963,-2.339632 v -0.226416 -3.96228 -7.773616 z m 0.0377,-17.73592 1.16982,1.169816 v 15.622704 h -1.01887 l -0.18868,-0.150944 -2.3019,-2.301896 v -1.207552 -6.6038 -3.96228 -0.226416 z m -20.98121,16.60384 -0.15095,0.18868 h -1.01887 V 41.879922 l 1.16982,-1.169816 2.33963,2.339632 v 0.226416 3.96228 7.773616 z"
         style=""
         id="path855" />
      <path
         d="m 167.36254,56.14413 1.77359,1.773592 -1.77359,1.735856 v -0.03774 h -0.67925 -0.0755 -4.86794 -0.79246 -0.26415 l -1.01887,-1.735856 1.01887,-1.735856 h 0.26415 0.79246 0.49056 z m -18.11328,1.735856 1.81133,-1.773592 v 0.03774 h 5.13209 1.54718 l 1.01887,1.735856 -1.01887,1.735856 h -5.92455 -0.11321 -0.64151 v 0.03774 z m 0,-17.698184 1.16982,-1.169816 h 17.58497 l 1.16982,1.169816 -2.33963,2.339632 h -0.75472 -5.1321 -3.47171 -5.1321 -0.75472 z m 20.41518,18.264224 0.18868,-0.150944 h 1.01887 V 73.88005 l -1.16982,1.169816 -2.33963,-2.339632 v -0.226416 -3.96228 -7.773616 z m -0.49057,17.132144 -1.16982,1.169816 h -17.58497 l -1.16982,-1.169816 2.33963,-2.339632 h 0.75472 5.1321 3.47171 5.1321 0.75472 z m -20.45291,-18.264224 -0.15095,0.18868 h -1.01887 V 41.879922 l 1.16982,-1.169816 2.33963,2.339632 v 0.226416 3.96228 7.773616 z"
         style=""
         id="path857" />
      <path
         d="m 198.17045,56.14413 1.77359,1.773592 -1.77359,1.735856 v -0.03774 h -0.67925 -0.0755 -4.86795 -0.79245 -0.26416 l -1.01887,-1.735856 1.01887,-1.735856 h 0.26416 0.79245 0.49057 z m -18.11328,1.735856 1.81132,-1.773592 v 0.03774 h 5.1321 1.54718 l 1.01887,1.735856 -1.01887,1.735856 h -5.92456 -0.1132 -0.64152 v 0.03774 z m 0,-17.698184 1.16981,-1.169816 h 17.58498 l 1.16981,1.169816 -2.33963,2.339632 h -0.75472 -5.13209 -3.47172 -5.13209 -0.75472 z m 20.41517,18.264224 0.18868,-0.150944 h 1.01887 V 73.88005 l -1.16981,1.169816 -2.33963,-2.339632 v -0.226416 -3.96228 -7.773616 z m -0.49057,17.132144 -1.16981,1.169816 h -17.58498 l -1.16981,-1.169816 2.33963,-2.339632 h 0.75472 5.13209 3.47172 5.13209 0.75472 z m -20.45291,-18.264224 -0.15094,0.18868 h -1.01887 V 41.879922 l 1.16981,-1.169816 2.33963,2.339632 v 0.226416 3.96228 7.773616 z m 0,17.73592 -1.16981,-1.169816 V 58.257346 h 1.01887 l 0.15094,0.18868 2.33963,2.301896 v 7.773616 3.96228 0.226416 z"
         style=""
         id="path859" />
      <path
         d="m 210.86507,40.181802 1.16982,-1.169816 h 17.58498 l 1.16981,1.169816 -2.33963,2.339632 h -0.75472 -5.1321 -3.47171 -5.13209 -0.75472 z m 20.41518,18.264224 0.18868,-0.150944 h 1.01887 V 73.88005 l -1.16981,1.169816 -2.33964,-2.339632 v -0.226416 -3.96228 -7.773616 z m 0.0377,-17.73592 1.16981,1.169816 v 15.622704 h -1.01887 l -0.18868,-0.150944 -2.3019,-2.301896 v -1.207552 -6.6038 -3.96228 -0.226416 z m -20.98122,16.60384 -0.15094,0.18868 h -1.01888 V 41.879922 l 1.16982,-1.169816 2.33963,2.339632 v 0.226416 3.96228 7.773616 z"
         style=""
         id="path861" />
      <path
         d="m 259.78626,56.14413 1.77359,1.773592 -1.77359,1.735856 v -0.03774 h -0.67925 -0.0755 -4.86794 -0.79246 -0.26415 l -1.01887,-1.735856 1.01887,-1.735856 h 0.26415 0.79246 0.49056 z m -18.11328,1.735856 1.81133,-1.773592 v 0.03774 h 5.13209 1.54718 l 1.01887,1.735856 -1.01887,1.735856 h -5.92455 -0.11321 -0.64151 v 0.03774 z m 0,-17.698184 1.16982,-1.169816 h 17.58497 l 1.16982,1.169816 -2.33963,2.339632 h -0.75472 -5.1321 -3.47171 -5.1321 -0.75472 z m 20.41518,18.264224 0.18868,-0.150944 h 1.01887 V 73.88005 l -1.16982,1.169816 -2.33963,-2.339632 v -0.226416 -3.96228 -7.773616 z m -0.49057,17.132144 -1.16982,1.169816 H 242.8428 l -1.16982,-1.169816 2.33963,-2.339632 h 0.75472 5.1321 3.47171 5.1321 0.75472 z m 0.5283,-34.868064 1.16982,1.169816 v 15.622704 h -1.01887 l -0.18868,-0.150944 -2.3019,-2.301896 v -1.207552 -6.6038 -3.96228 -0.226416 z m -20.98121,16.60384 -0.15095,0.18868 h -1.01887 V 41.879922 l 1.16982,-1.169816 2.33963,2.339632 v 0.226416 3.96228 7.773616 z m 0,17.73592 -1.16982,-1.169816 V 58.257346 h 1.01887 l 0.15095,0.18868 2.33963,2.301896 v 7.773616 3.96228 0.226416 z"
         style=""
         id="path863" />
      <path
         d="m 269.19786,73.50269 q 0.18868,0.452832 0.18868,0.905664 0,0.452832 -0.18868,0.905664 -0.18868,0.452832 -0.49057,0.75472 -0.30189,0.301888 -0.75472,0.490568 -0.45283,0.18868 -0.90567,0.18868 -0.45283,0 -0.90566,-0.18868 -0.45283,-0.18868 -0.75472,-0.490568 -0.30189,-0.301888 -0.49057,-0.75472 -0.18868,-0.452832 -0.18868,-0.905664 0,-0.452832 0.18868,-0.905664 0.18868,-0.452832 0.49057,-0.75472 0.30189,-0.301888 0.75472,-0.490568 0.45283,-0.18868 0.90566,-0.18868 0.45284,0 0.90567,0.18868 0.45283,0.18868 0.75472,0.490568 0.30189,0.301888 0.49057,0.75472 z"
         style=""
         id="path865" />
    </g>
  </g>
</svg>
