<?xml version="1.0" encoding="UTF-8" standalone="no"?>
<svg
   viewBox="0 0 348 348"
   fill="none"
   version="1.1"
   id="svg197"
   sodipodi:docname="Password Destroyer.svg"
   inkscape:version="1.2.2 (732a01da63, 2022-12-09)"
   xmlns:inkscape="http://www.inkscape.org/namespaces/inkscape"
   xmlns:sodipodi="http://sodipodi.sourceforge.net/DTD/sodipodi-0.dtd"
   xmlns:xlink="http://www.w3.org/1999/xlink"
   xmlns="http://www.w3.org/2000/svg"
   xmlns:svg="http://www.w3.org/2000/svg"
   xmlns:rdf="http://www.w3.org/1999/02/22-rdf-syntax-ns#"
   xmlns:cc="http://creativecommons.org/ns#"
   xmlns:dc="http://purl.org/dc/elements/1.1/">
  <metadata
     id="metadata201">
    <rdf:RDF>
      <cc:Work
         rdf:about="">
        <dc:format>image/svg+xml</dc:format>
        <dc:type
           rdf:resource="http://purl.org/dc/dcmitype/StillImage" />
      </cc:Work>
    </rdf:RDF>
  </metadata>
  <sodipodi:namedview
     pagecolor="#ffffff"
     bordercolor="#666666"
     borderopacity="1"
     objecttolerance="10"
     gridtolerance="10"
     guidetolerance="10"
     inkscape:pageopacity="0"
     inkscape:pageshadow="2"
     inkscape:window-width="1920"
     inkscape:window-height="1017"
     id="namedview199"
     showgrid="false"
     showguides="true"
     inkscape:zoom="2.8284271"
     inkscape:cx="147.78532"
     inkscape:cy="177.13025"
     inkscape:window-x="-8"
     inkscape:window-y="-8"
     inkscape:window-maximized="1"
     inkscape:current-layer="svg197"
     inkscape:showpageshadow="2"
     inkscape:pagecheckerboard="0"
     inkscape:deskcolor="#d1d1d1" />
  <defs
     id="defs31">
    <linearGradient
       id="a">
      <stop
         offset="0"
         stop-color="#fff"
         id="stop2" />
      <stop
         offset="1"
         stop-color="#fff"
         stop-opacity="0"
         id="stop4" />
    </linearGradient>
    <linearGradient
       xlink:href="#a"
       id="b"
       x1="33.915"
       y1="191.326"
       x2="84.788"
       y2="191.326"
       gradientUnits="userSpaceOnUse"
       gradientTransform="matrix(.97561 0 0 .97561 -3.143 -28.567)" />
    <linearGradient
       gradientTransform="matrix(.95903 0 0 .97582 47.415 -28.607)"
       xlink:href="#a"
       id="c"
       x1="33.915"
       y1="191.326"
       x2="84.788"
       y2="191.326"
       gradientUnits="userSpaceOnUse" />
    <linearGradient
       gradientTransform="matrix(.95903 0 0 .97582 147.415 71.393)"
       xlink:href="#a"
       id="d"
       x1="33.915"
       y1="191.326"
       x2="84.788"
       y2="191.326"
       gradientUnits="userSpaceOnUse" />
    <linearGradient
       gradientTransform="matrix(.95903 0 0 .97582 147.415 -28.607)"
       xlink:href="#a"
       id="e"
       x1="33.915"
       y1="191.326"
       x2="84.788"
       y2="191.326"
       gradientUnits="userSpaceOnUse" />
    <linearGradient
       gradientTransform="matrix(.95903 0 0 .97582 197.415 -28.607)"
       xlink:href="#a"
       id="f"
       x1="33.915"
       y1="191.326"
       x2="84.788"
       y2="191.326"
       gradientUnits="userSpaceOnUse" />
    <linearGradient
       gradientTransform="matrix(.95903 0 0 .97582 247.415 -28.607)"
       xlink:href="#a"
       id="g"
       x1="33.915"
       y1="191.326"
       x2="84.788"
       y2="191.326"
       gradientUnits="userSpaceOnUse" />
    <linearGradient
       gradientTransform="matrix(0.95903,0,0,0.97582,-2.585,20.871659)"
       xlink:href="#a"
       id="h"
       x1="33.915"
       y1="191.326"
       x2="84.788"
       y2="191.326"
       gradientUnits="userSpaceOnUse" />
    <linearGradient
       gradientTransform="matrix(.95903 0 0 .97582 -2.585 71.393)"
       xlink:href="#a"
       id="i"
       x1="33.915"
       y1="191.326"
       x2="84.788"
       y2="191.326"
       gradientUnits="userSpaceOnUse" />
    <linearGradient
       gradientTransform="matrix(.95903 0 0 .97582 47.415 21.393)"
       xlink:href="#a"
       id="j"
       x1="33.915"
       y1="191.326"
       x2="84.788"
       y2="191.326"
       gradientUnits="userSpaceOnUse" />
    <linearGradient
       gradientTransform="matrix(.95903 0 0 .97582 47.415 121.393)"
       xlink:href="#a"
       id="k"
       x1="33.915"
       y1="191.326"
       x2="84.788"
       y2="191.326"
       gradientUnits="userSpaceOnUse" />
    <linearGradient
       gradientTransform="matrix(.95903 0 0 .97582 197.415 71.393)"
       xlink:href="#a"
       id="l"
       x1="33.915"
       y1="191.326"
       x2="84.788"
       y2="191.326"
       gradientUnits="userSpaceOnUse" />
    <linearGradient
       gradientTransform="matrix(.95903 0 0 .97582 147.415 21.393)"
       xlink:href="#a"
       id="m"
       x1="33.915"
       y1="191.326"
       x2="84.788"
       y2="191.326"
       gradientUnits="userSpaceOnUse" />
    <linearGradient
       gradientTransform="matrix(.95903 0 0 .97582 247.415 71.393)"
       xlink:href="#a"
       id="n"
       x1="33.915"
       y1="191.326"
       x2="84.788"
       y2="191.326"
       gradientUnits="userSpaceOnUse" />
    <linearGradient
       gradientTransform="matrix(.95903 0 0 .97582 97.414 -28.607)"
       xlink:href="#a"
       id="o"
       x1="33.915"
       y1="191.326"
       x2="84.788"
       y2="191.326"
       gradientUnits="userSpaceOnUse" />
    <linearGradient
       gradientTransform="matrix(.95903 0 0 .97582 147.415 121.393)"
       xlink:href="#a"
       id="p"
       x1="33.915"
       y1="191.326"
       x2="84.788"
       y2="191.326"
       gradientUnits="userSpaceOnUse" />
    <linearGradient
       gradientTransform="matrix(.95903 0 0 .97582 247.415 121.393)"
       xlink:href="#a"
       id="q"
       x1="33.915"
       y1="191.326"
       x2="84.788"
       y2="191.326"
       gradientUnits="userSpaceOnUse" />
    <linearGradient
       gradientTransform="matrix(.95903 0 0 .97582 197.415 121.393)"
       xlink:href="#a"
       id="r"
       x1="33.915"
       y1="191.326"
       x2="84.788"
       y2="191.326"
       gradientUnits="userSpaceOnUse" />
    <linearGradient
       gradientTransform="matrix(.95903 0 0 .97582 47.415 71.393)"
       xlink:href="#a"
       id="s"
       x1="33.915"
       y1="191.326"
       x2="84.788"
       y2="191.326"
       gradientUnits="userSpaceOnUse" />
    <linearGradient
       gradientTransform="matrix(.95903 0 0 .97582 -2.585 121.393)"
       xlink:href="#a"
       id="t"
       x1="33.915"
       y1="191.326"
       x2="84.788"
       y2="191.326"
       gradientUnits="userSpaceOnUse" />
    <linearGradient
       gradientTransform="matrix(.95903 0 0 .97582 197.415 21.393)"
       xlink:href="#a"
       id="u"
       x1="33.915"
       y1="191.326"
       x2="84.788"
       y2="191.326"
       gradientUnits="userSpaceOnUse" />
    <linearGradient
       gradientTransform="matrix(1.7940415,0,0,0.53299449,185.36413,50.787964)"
       xlink:href="#a"
       id="v"
       x1="33.915"
       y1="191.326"
       x2="84.788"
       y2="191.326"
       gradientUnits="userSpaceOnUse" />
    <linearGradient
       gradientTransform="matrix(.95903 0 0 .97582 97.415 71.393)"
       xlink:href="#a"
       id="w"
       x1="33.915"
       y1="191.326"
       x2="84.788"
       y2="191.326"
       gradientUnits="userSpaceOnUse" />
    <linearGradient
       gradientTransform="matrix(.95903 0 0 .97582 97.415 121.393)"
       xlink:href="#a"
       id="x"
       x1="33.915"
       y1="191.326"
       x2="84.788"
       y2="191.326"
       gradientUnits="userSpaceOnUse" />
    <linearGradient
       gradientTransform="matrix(.95903 0 0 .97582 97.415 21.393)"
       xlink:href="#a"
       id="y"
       x1="33.915"
       y1="191.326"
       x2="84.788"
       y2="191.326"
       gradientUnits="userSpaceOnUse" />
  </defs>
  <path
     d="M5.079 5.776h336.913v337.67H5.08z"
     stroke-width="2"
     stroke="#000"
     id="path33" />
  <path
     fill="#000000"
     d="m 24.36761,27.551 h 295.69207 v 100 H 24.36761 Z"
     id="path37"
     style="stroke-width:1.13376" />
  <path
     fill="url(#v)"
     stroke="#000000"
     stroke-width="0.680113"
     d="m 246.21001,142.34939 h 73.01837 v 21.31989 h -73.01837 z"
     id="path79"
     style="fill:url(#v)" />
  <path
     inkscape:connector-curvature="0"
     style="fill:#000000;stroke-width:0.461533"
     d="M 27.309216,289.027 H 167.30922 v 35 H 27.309216 Z"
     id="path37-7-2" />
  <path
     inkscape:connector-curvature="0"
     style="fill:#000000;stroke-width:0.466854"
     d="m 177.05606,288.62935 h 143.24762 v 35 H 177.05606 Z"
     id="path37-7-2-3" />
  <path
     d="m 43.931679,202.76452 a 10.839192,10.839192 0 0 1 -10.812185,10.8392 10.839192,10.839192 0 0 1 -10.866201,-10.78596 10.839192,10.839192 0 0 1 10.758943,-10.89244 10.839192,10.839192 0 0 1 10.918671,10.73271"
     fill="#ffffff"
     stroke="#000000"
     stroke-width="1.23"
     id="path1930" />
  <path
     d="m 39.061875,209.89137 q -0.482275,0.12115 -0.956831,0.16976 -0.466069,0.0556 -0.956832,0.0556 -1.398206,0 -2.250094,-0.77166 -0.844171,-0.76389 -0.916705,-2.19452 -0.19291,0.0324 -0.378102,0.0402 -0.175933,0.0161 -0.344923,0.0161 -1.261626,0 -2.299478,-0.41823 -1.028595,-0.41745 -1.751618,-1.213 -0.723797,-0.79634 -1.117331,-1.95379 -0.385819,-1.15745 -0.385819,-2.6444 0,-1.46303 0.385819,-2.62048 0.38582,-1.16517 1.125047,-1.99314 0.707593,-0.78709 1.752388,-1.20531 1.053288,-0.4182 2.290992,-0.4182 1.286321,0 2.307197,0.42592 1.028593,0.41823 1.743901,1.19759 0.731512,0.80403 1.117331,1.96922 0.393534,1.16517 0.393534,2.6444 0,2.19454 -0.899729,3.69769 -0.892783,1.50315 -2.40365,2.1058 0.03242,0.9167 0.43443,1.42289 0.401253,0.5062 1.462256,0.5062 0.329488,0 0.779353,-0.10417 0.459124,-0.0965 0.652033,-0.17748 h 0.216059 z m -1.897456,-8.91396 q 0,-2.33033 -1.044799,-3.59273 -1.044797,-1.27013 -2.853515,-1.27013 -1.824151,0 -2.868947,1.27013 -1.037081,1.26161 -1.037081,3.59273 0,2.35504 1.061001,3.60894 1.061003,1.24621 2.845027,1.24621 1.784797,0 2.837312,-1.24621 1.061002,-1.2539 1.061002,-3.60894 z"
     aria-label="Q"
     font-weight="400"
     font-size="21.333px"
     font-family="sans-serif"
     letter-spacing="0"
     word-spacing="0"
     fill="#000000"
     id="path1932"
     style="stroke-width:0.771637" />
  <path
     d="m 69.182744,202.76452 a 10.839192,10.839192 0 0 1 -10.812956,10.8392 10.839192,10.839192 0 0 1 -10.8662,-10.78596 10.839192,10.839192 0 0 1 10.759714,-10.89244 10.839192,10.839192 0 0 1 10.91867,10.73271"
     fill="#ffffff"
     stroke="#000000"
     stroke-width="1.23"
     id="path1934" />
  <path
     d="m 65.779823,195.96022 -3.111242,11.96811 h -1.792513 l -2.51554,-9.93407 -2.45998,9.93484 H 54.14893 l -3.16757,-11.96811 h 1.632011 l 2.515539,9.95027 2.476185,-9.95104 h 1.615037 l 2.500105,10.04749 2.500107,-10.04672 z"
     aria-label="W"
     font-weight="400"
     font-size="21.333px"
     font-family="sans-serif"
     letter-spacing="0"
     word-spacing="0"
     fill="#000000"
     id="path1936"
     style="stroke-width:0.771637" />
  <path
     d="M 93.947682,202.76452 A 10.839192,10.839192 0 0 1 83.133951,213.60294 10.839192,10.839192 0 0 1 72.267752,202.81699 10.839192,10.839192 0 0 1 83.027464,191.92455 10.839192,10.839192 0 0 1 93.946143,202.65727"
     fill="#ffffff"
     stroke="#000000"
     stroke-width="1.23"
     id="path1938" />
  <g
     style="line-height:1.25"
     id="g1942"
     transform="matrix(0.7716375,0,0,0.77163746,11.726616,33.294404)">
    <path
       d="M 97.456,226.317 H 87.237 v -15.51 h 10.219 v 1.833 H 89.3 v 4.25 h 8.156 v 1.833 H 89.3 v 5.76 h 8.156 z"
       aria-label="E"
       font-weight="400"
       font-size="21.333px"
       font-family="sans-serif"
       letter-spacing="0"
       word-spacing="0"
       fill="#000000"
       id="path1940" />
  </g>
  <path
     d="m 118.71261,202.76452 a 10.839192,10.839192 0 0 1 -10.81295,10.8392 10.839192,10.839192 0 0 1 -10.866206,-10.78596 10.839192,10.839192 0 0 1 10.759726,-10.89244 10.839192,10.839192 0 0 1 10.91866,10.73271"
     fill="#ffffff"
     stroke="#000000"
     stroke-width="1.23"
     id="path1944" />
  <path
     d="m 113.71009,207.9291 h -2.06567 l -4.00249,-4.7587 h -2.24314 v 4.7587 h -1.59113 v -11.96811 h 3.352 q 1.08493,0 1.80795,0.14429 0.72379,0.13659 1.30252,0.49849 0.65126,0.40973 1.01239,1.03707 0.37038,0.61887 0.37038,1.57492 0,1.29404 -0.65126,2.17062 -0.65125,0.86809 -1.79252,1.31024 z m -3.7216,-8.60068 q 0,-0.51468 -0.1852,-0.90821 -0.17671,-0.40126 -0.59417,-0.67519 -0.34569,-0.23304 -0.82025,-0.32177 -0.47377,-0.0965 -1.11733,-0.0965 h -1.87275 v 4.51718 h 1.60808 q 0.75544,0 1.31796,-0.12808 0.5633,-0.1366 0.95682,-0.49848 0.36114,-0.33799 0.53012,-0.77165 0.17747,-0.44214 0.17747,-1.11733 z"
     aria-label="R"
     font-weight="400"
     font-size="21.333px"
     font-family="sans-serif"
     letter-spacing="0"
     word-spacing="0"
     fill="#000000"
     id="path1946"
     style="stroke-width:0.771637" />
  <path
     d="m 143.96291,202.76452 a 10.839192,10.839192 0 0 1 -10.81297,10.8392 10.839192,10.839192 0 0 1 -10.86542,-10.78596 10.839192,10.839192 0 0 1 10.75895,-10.89244 10.839192,10.839192 0 0 1 10.91867,10.73271"
     fill="#ffffff"
     stroke="#000000"
     stroke-width="1.23"
     id="path1948" />
  <path
     d="m 138.31144,197.3754 h -4.27642 v 10.5537 h -1.5919 v -10.5537 h -4.27563 v -1.41518 h 10.14395 z"
     aria-label="T"
     font-weight="400"
     font-size="21.333px"
     font-family="sans-serif"
     letter-spacing="0"
     word-spacing="0"
     fill="#000000"
     id="path1950"
     style="stroke-width:0.771637" />
  <path
     d="m 169.2132,202.76452 a 10.839192,10.839192 0 0 1 -10.81219,10.8392 10.839192,10.839192 0 0 1 -10.86619,-10.78596 10.839192,10.839192 0 0 1 10.75894,-10.89244 10.839192,10.839192 0 0 1 10.91867,10.73271"
     fill="#ffffff"
     stroke="#000000"
     stroke-width="1.23"
     id="path1952" />
  <path
     d="m 163.59799,196.06053 -4.21236,6.71943 v 5.24868 h -1.59113 v -5.0797 l -4.22857,-6.88841 h 1.76089 l 3.27173,5.35285 3.30261,-5.35285 z"
     aria-label="Y"
     font-weight="400"
     font-size="21.333px"
     font-family="sans-serif"
     letter-spacing="0"
     word-spacing="0"
     fill="#000000"
     id="path1954"
     style="stroke-width:0.771637" />
  <path
     d="m 194.46427,202.76452 a 10.839192,10.839192 0 0 1 -10.81295,10.8392 10.839192,10.839192 0 0 1 -10.8662,-10.78596 10.839192,10.839192 0 0 1 10.75971,-10.89244 10.839192,10.839192 0 0 1 10.91866,10.73271"
     fill="#ffffff"
     stroke="#000000"
     stroke-width="1.23"
     id="path1956" />
  <path
     d="m 188.08437,203.12256 q 0,1.30175 -0.28937,2.27478 -0.28164,0.96455 -0.93291,1.60733 -0.61884,0.61114 -1.44682,0.89201 -0.82796,0.28166 -1.92909,0.28166 -1.12504,0 -1.96072,-0.29786 -0.83647,-0.29709 -1.40671,-0.87581 -0.65126,-0.65898 -0.9414,-1.59189 -0.28087,-0.93214 -0.28087,-2.29022 v -7.16234 h 1.59189 v 7.24259 q 0,0.97225 0.12886,1.53556 0.13657,0.56253 0.44987,1.02009 0.35341,0.52241 0.95682,0.78786 0.61038,0.26545 1.46226,0.26545 0.86037,0 1.46303,-0.25696 0.60264,-0.26545 0.96454,-0.79635 0.31328,-0.45756 0.44214,-1.04478 0.13659,-0.59417 0.13659,-1.47075 v -7.28271 h 1.59189 z"
     aria-label="U"
     font-weight="400"
     font-size="21.333px"
     font-family="sans-serif"
     letter-spacing="0"
     word-spacing="0"
     fill="#000000"
     id="path1958"
     style="stroke-width:0.771637" />
  <path
     d="m 219.2292,202.76452 a 10.839192,10.839192 0 0 1 -10.81296,10.8392 10.839192,10.839192 0 0 1 -10.8662,-10.78596 10.839192,10.839192 0 0 1 10.75971,-10.89244 10.839192,10.839192 0 0 1 10.91868,10.73271"
     fill="#ffffff"
     stroke="#000000"
     stroke-width="1.23"
     id="path1960" />
  <path
     d="m 210.97191,207.9291 h -4.72629 v -1.22152 h 1.56721 v -9.52508 h -1.56644 v -1.22228 h 4.72552 v 1.22228 h -1.5672 v 9.52508 h 1.5672 z"
     aria-label="I"
     font-weight="400"
     font-size="21.333px"
     font-family="sans-serif"
     letter-spacing="0"
     word-spacing="0"
     fill="#000000"
     id="path1962"
     style="stroke-width:0.771637" />
  <path
     d="m 243.99414,202.76452 a 10.839192,10.839192 0 0 1 -10.81296,10.8392 10.839192,10.839192 0 0 1 -10.86619,-10.78596 10.839192,10.839192 0 0 1 10.7597,-10.89244 10.839192,10.839192 0 0 1 10.91868,10.73271"
     fill="#ffffff"
     stroke="#000000"
     stroke-width="1.23"
     id="path1964" />
  <path
     d="m 237.04013,197.33528 q 0.73151,0.80327 1.11732,1.96922 0.39355,1.16516 0.39355,2.6444 0,1.47921 -0.40125,2.65212 -0.3943,1.16517 -1.10962,1.9453 -0.73999,0.81176 -1.75239,1.22227 -1.00467,0.40897 -2.29947,0.40897 -1.26162,0 -2.29794,-0.41668 -1.02936,-0.419 -1.75238,-1.21456 -0.72381,-0.79557 -1.11734,-1.95302 -0.38582,-1.15746 -0.38582,-2.6444 0,-1.46303 0.38582,-2.62048 0.38582,-1.16519 1.12504,-1.99314 0.7076,-0.78784 1.75239,-1.20607 1.05329,-0.41746 2.291,-0.41746 1.28554,0 2.3072,0.42595 1.02858,0.41746 1.74389,1.19758 z m -0.14507,4.61362 q 0,-2.33112 -1.04479,-3.59274 -1.04479,-1.27012 -2.8535,-1.27012 -1.82416,0 -2.86972,1.27012 -1.03633,1.26162 -1.03633,3.59274 0,2.35503 1.06101,3.60894 1.06101,1.24621 2.84504,1.24621 1.78479,0 2.8373,-1.24621 1.06099,-1.25391 1.06099,-3.60894 z"
     aria-label="O"
     font-weight="400"
     font-size="21.333px"
     font-family="sans-serif"
     letter-spacing="0"
     word-spacing="0"
     fill="#000000"
     id="path1966"
     style="stroke-width:0.771637" />
  <path
     d="m 269.24442,202.76452 a 10.839192,10.839192 0 0 1 -10.81295,10.8392 10.839192,10.839192 0 0 1 -10.86542,-10.78596 10.839192,10.839192 0 0 1 10.75894,-10.89244 10.839192,10.839192 0 0 1 10.91866,10.73271"
     fill="#ffffff"
     stroke="#000000"
     stroke-width="1.23"
     id="path1968" />
  <path
     d="m 294.71863,202.64884 a 10.839192,10.839192 0 0 1 -10.81294,10.8392 10.839192,10.839192 0 0 1 -10.86543,-10.78596 10.839192,10.839192 0 0 1 10.75894,-10.89243 10.839192,10.839192 0 0 1 10.91866,10.73271"
     fill="#ffffff"
     stroke="#000000"
     stroke-width="1.23"
     id="path1968-9" />
  <path
     d="m 319.23757,202.64884 a 10.839192,10.839192 0 0 1 -10.81295,10.8392 10.839192,10.839192 0 0 1 -10.86543,-10.78596 10.839192,10.839192 0 0 1 10.75894,-10.89243 10.839192,10.839192 0 0 1 10.91867,10.73271"
     fill="#ffffff"
     stroke="#000000"
     stroke-width="1.23"
     id="path1968-9-0" />
  <path
     d="m 282.1296,225.172 a 10.839192,10.839192 0 0 1 -10.81294,10.8392 10.839192,10.839192 0 0 1 -10.86543,-10.78596 10.839192,10.839192 0 0 1 10.75894,-10.89243 10.839192,10.839192 0 0 1 10.91866,10.73271"
     fill="#ffffff"
     stroke="#000000"
     stroke-width="1.23"
     id="path1968-9-8" />
  <path
     d="m 306.64854,225.172 a 10.839192,10.839192 0 0 1 -10.81295,10.8392 10.839192,10.839192 0 0 1 -10.86543,-10.78596 10.839192,10.839192 0 0 1 10.75894,-10.89243 10.839192,10.839192 0 0 1 10.91867,10.73271"
     fill="#ffffff"
     stroke="#000000"
     stroke-width="1.23"
     id="path1968-9-0-6" />
  <path
     d="m 268.69458,248.86009 a 10.839192,10.839192 0 0 1 -10.81294,10.8392 10.839192,10.839192 0 0 1 -10.86543,-10.78596 10.839192,10.839192 0 0 1 10.75894,-10.89243 10.839192,10.839192 0 0 1 10.91866,10.73271"
     fill="#ffffff"
     stroke="#000000"
     stroke-width="1.23"
     id="path1968-9-5" />
  <path
     d="m 244.53804,248.86008 a 10.839192,10.839192 0 0 1 -10.81294,10.8392 10.839192,10.839192 0 0 1 -10.86543,-10.78596 10.839192,10.839192 0 0 1 10.75894,-10.89243 10.839192,10.839192 0 0 1 10.91866,10.73271"
     fill="#ffffff"
     stroke="#000000"
     stroke-width="1.23"
     id="path1968-9-5-2" />
  <path
     d="m 293.21352,248.86009 a 10.839192,10.839192 0 0 1 -10.81295,10.8392 10.839192,10.839192 0 0 1 -10.86543,-10.78596 10.839192,10.839192 0 0 1 10.75894,-10.89243 10.839192,10.839192 0 0 1 10.91867,10.73271"
     fill="#ffffff"
     stroke="#000000"
     stroke-width="1.23"
     id="path1968-9-0-1" />
  <path
     d="m 262.88537,199.57766 q 0,0.79556 -0.28165,1.47923 -0.27317,0.67518 -0.77163,1.17289 -0.61886,0.61962 -1.46226,0.93291 -0.84417,0.30556 -2.12972,0.30556 h -1.59189 v 4.46008 h -1.59189 v -11.96811 h 3.24705 q 1.07721,0 1.82493,0.1852 0.74771,0.17748 1.32644,0.56328 0.68288,0.45759 1.05251,1.14048 0.37811,0.68367 0.37811,1.72848 z m -1.65595,0.0401 q 0,-0.61885 -0.21682,-1.0772 -0.21683,-0.45836 -0.65899,-0.74772 -0.38582,-0.24846 -0.88429,-0.3534 -0.49076,-0.11268 -1.24618,-0.11268 h -1.57492 v 4.78262 h 1.34264 q 0.96456,0 1.56643,-0.16899 0.60343,-0.1767 0.98075,-0.55403 0.3781,-0.38582 0.53089,-0.81177 0.16049,-0.42593 0.16049,-0.95683 z"
     aria-label="P"
     font-weight="400"
     font-size="21.333px"
     font-family="sans-serif"
     letter-spacing="0"
     word-spacing="0"
     fill="#000000"
     id="path1970"
     style="stroke-width:0.771637" />
  <path
     d="m 43.599047,177.18821 a 10.839192,10.839192 0 0 1 -10.81219,10.8392 10.839192,10.839192 0 0 1 -10.8662,-10.78596 10.839192,10.839192 0 0 1 10.75895,-10.89244 10.839192,10.839192 0 0 1 10.91867,10.73271"
     fill="#ffffff"
     stroke="#000000"
     stroke-width="1.23"
     id="path1930-3" />
  <path
     d="m 68.850107,177.18821 a 10.839192,10.839192 0 0 1 -10.81295,10.8392 10.839192,10.839192 0 0 1 -10.8662,-10.78596 10.839192,10.839192 0 0 1 10.75971,-10.89244 10.839192,10.839192 0 0 1 10.91867,10.73271"
     fill="#ffffff"
     stroke="#000000"
     stroke-width="1.23"
     id="path1934-7" />
  <path
     d="m 93.615047,177.18821 a 10.839192,10.839192 0 0 1 -10.81373,10.83842 10.839192,10.839192 0 0 1 -10.8662,-10.78595 10.839192,10.839192 0 0 1 10.75971,-10.89244 10.839192,10.839192 0 0 1 10.91868,10.73272"
     fill="#ffffff"
     stroke="#000000"
     stroke-width="1.23"
     id="path1938-4" />
  <path
     d="m 93.925079,151.67532 a 10.839192,10.839192 0 0 1 -10.81373,10.83842 10.839192,10.839192 0 0 1 -10.8662,-10.78595 10.839192,10.839192 0 0 1 10.75971,-10.89244 10.839192,10.839192 0 0 1 10.91868,10.73272"
     fill="#ffffff"
     stroke="#000000"
     stroke-width="1.23"
     id="path1938-4-0" />
  <path
     d="m 43.720497,152.02887 a 10.839192,10.839192 0 0 1 -10.81373,10.83842 10.839192,10.839192 0 0 1 -10.8662,-10.78595 10.839192,10.839192 0 0 1 10.75971,-10.89244 10.839192,10.839192 0 0 1 10.91868,10.73272"
     fill="#ffffff"
     stroke="#000000"
     stroke-width="1.23"
     id="path1938-4-0-6" />
  <path
     d="m 118.37998,177.18821 a 10.839192,10.839192 0 0 1 -10.81295,10.8392 10.839192,10.839192 0 0 1 -10.866213,-10.78596 10.839192,10.839192 0 0 1 10.759733,-10.89244 10.839192,10.839192 0 0 1 10.91866,10.73271"
     fill="#ffffff"
     stroke="#000000"
     stroke-width="1.23"
     id="path1944-5" />
  <path
     d="m 143.63028,177.18821 a 10.839192,10.839192 0 0 1 -10.81297,10.8392 10.839192,10.839192 0 0 1 -10.86542,-10.78596 10.839192,10.839192 0 0 1 10.75895,-10.89244 10.839192,10.839192 0 0 1 10.91867,10.73271"
     fill="#ffffff"
     stroke="#000000"
     stroke-width="1.23"
     id="path1948-9" />
  <path
     d="m 168.88057,177.18821 a 10.839192,10.839192 0 0 1 -10.81219,10.8392 10.839192,10.839192 0 0 1 -10.86619,-10.78596 10.839192,10.839192 0 0 1 10.75894,-10.89244 10.839192,10.839192 0 0 1 10.91867,10.73271"
     fill="#ffffff"
     stroke="#000000"
     stroke-width="1.23"
     id="path1952-8" />
  <path
     d="m 194.13164,177.18821 a 10.839192,10.839192 0 0 1 -10.81295,10.8392 10.839192,10.839192 0 0 1 -10.8662,-10.78596 10.839192,10.839192 0 0 1 10.75971,-10.89244 10.839192,10.839192 0 0 1 10.91866,10.73271"
     fill="#ffffff"
     stroke="#000000"
     stroke-width="1.23"
     id="path1956-4" />
  <path
     d="m 218.89657,177.18821 a 10.839192,10.839192 0 0 1 -10.81296,10.8392 10.839192,10.839192 0 0 1 -10.8662,-10.78596 10.839192,10.839192 0 0 1 10.75971,-10.89244 10.839192,10.839192 0 0 1 10.91868,10.73271"
     fill="#ffffff"
     stroke="#000000"
     stroke-width="1.23"
     id="path1960-9" />
  <path
     d="m 243.66151,177.18821 a 10.839192,10.839192 0 0 1 -10.81296,10.8392 10.839192,10.839192 0 0 1 -10.86619,-10.78596 10.839192,10.839192 0 0 1 10.7597,-10.89244 10.839192,10.839192 0 0 1 10.91868,10.73271"
     fill="#ffffff"
     stroke="#000000"
     stroke-width="1.23"
     id="path1964-1" />
  <path
     d="m 268.91179,177.18821 a 10.839192,10.839192 0 0 1 -10.81295,10.8392 10.839192,10.839192 0 0 1 -10.86542,-10.78596 10.839192,10.839192 0 0 1 10.75894,-10.89244 10.839192,10.839192 0 0 1 10.91866,10.73271"
     fill="#ffffff"
     stroke="#000000"
     stroke-width="1.23"
     id="path1968-4" />
  <path
     d="m 294.386,177.07253 a 10.839192,10.839192 0 0 1 -10.81294,10.8392 10.839192,10.839192 0 0 1 -10.86543,-10.78596 10.839192,10.839192 0 0 1 10.75894,-10.89243 10.839192,10.839192 0 0 1 10.91866,10.73271"
     fill="#ffffff"
     stroke="#000000"
     stroke-width="1.23"
     id="path1968-9-3" />
  <path
     d="m 318.90494,177.07253 a 10.839192,10.839192 0 0 1 -10.81295,10.8392 10.839192,10.839192 0 0 1 -10.86543,-10.78596 10.839192,10.839192 0 0 1 10.75894,-10.89243 10.839192,10.839192 0 0 1 10.91867,10.73271"
     fill="#ffffff"
     stroke="#000000"
     stroke-width="1.23"
     id="path1968-9-0-12" />
  <path
     d="M 56.557212,226.0726 A 10.839192,10.839192 0 0 1 45.744254,236.9118 10.839192,10.839192 0 0 1 34.878827,226.12661 10.839192,10.839192 0 0 1 45.637769,215.23418 10.839192,10.839192 0 0 1 56.55644,225.9669"
     fill="#ffffff"
     stroke="#000000"
     stroke-width="1.23"
     id="path1972" />
  <path
     d="m 51.166552,230.75181 h -1.696059 l -1.173662,-3.3358 h -5.176143 l -1.173662,3.3358 h -1.615808 l 4.356668,-11.96809 h 2.122001 z m -3.359708,-4.70235 -2.098856,-5.87603 -2.105026,5.87603 z"
     aria-label="A"
     font-weight="400"
     font-size="21.333px"
     font-family="sans-serif"
     letter-spacing="0"
     word-spacing="0"
     fill="#000000"
     id="path1974"
     style="stroke-width:0.771637" />
  <path
     d="m 81.807504,226.0726 a 10.839192,10.839192 0 0 1 -10.812182,10.8392 10.839192,10.839192 0 0 1 -10.8662,-10.78519 10.839192,10.839192 0 0 1 10.758942,-10.89243 10.839192,10.839192 0 0 1 10.918669,10.73272"
     fill="#ffffff"
     stroke="#000000"
     stroke-width="1.23"
     id="path1976" />
  <path
     d="m 75.114321,227.82113 q 0,0.69911 -0.329489,1.38277 -0.321772,0.6829 -0.908216,1.15747 -0.643546,0.51391 -1.50315,0.80327 -0.851888,0.28936 -2.057958,0.28936 -1.294036,0 -2.330345,-0.24075 -1.029365,-0.24153 -2.098855,-0.71531 v -1.99391 h 0.11266 q 0.908989,0.75621 2.098855,1.16519 1.188322,0.4105 2.23389,0.4105 1.479229,0 2.299479,-0.55482 0.826425,-0.55403 0.826425,-1.47844 0,-0.79634 -0.393536,-1.17368 -0.385818,-0.37809 -1.182149,-0.58643 -0.601877,-0.16128 -1.309469,-0.26545 -0.699876,-0.10495 -1.487716,-0.26544 -1.591117,-0.33798 -2.362754,-1.14976 -0.763922,-0.81946 -0.763922,-2.1297 0,-1.50315 1.270115,-2.45998 1.270117,-0.96454 3.223132,-0.96454 1.262398,0 2.314912,0.24151 1.053285,0.24077 1.865048,0.59416 v 1.88125 h -0.112661 q -0.6829,-0.57871 -1.80023,-0.95681 -1.109615,-0.38583 -2.274788,-0.38583 -1.27783,0 -2.057957,0.53089 -0.771636,0.5309 -0.771636,1.36581 0,0.74849 0.385818,1.17443 0.385818,0.42594 1.358082,0.65126 0.514681,0.11188 1.463024,0.27315 0.949115,0.16051 1.608094,0.32949 1.334161,0.3534 2.009343,1.06872 0.675183,0.7153 0.675183,2.00162 z"
     aria-label="S"
     font-weight="400"
     font-size="21.333px"
     font-family="sans-serif"
     letter-spacing="0"
     word-spacing="0"
     fill="#000000"
     id="path1978"
     style="stroke-width:0.771637" />
  <path
     d="M 106.57244,226.0726 A 10.839192,10.839192 0 0 1 95.760257,236.9118 10.839192,10.839192 0 0 1 84.893284,226.12661 10.839192,10.839192 0 0 1 95.652227,215.23418 10.839192,10.839192 0 0 1 106.5709,225.9669"
     fill="#ffffff"
     stroke="#000000"
     stroke-width="1.23"
     id="path1980" />
  <path
     d="m 101.29366,225.01083 q 0,1.63201 -0.7153,2.95846 -0.70682,1.32567 -1.88897,2.05718 -0.819481,0.50696 -1.832647,0.73151 -1.004668,0.22532 -2.652108,0.22532 h -3.022507 v -11.96809 h 2.990104 q 1.752381,0 2.780972,0.25696 1.03708,0.24924 1.752396,0.69138 1.22227,0.76392 1.90517,2.03326 0.68289,1.27013 0.68289,3.01402 z m -1.66364,-0.0232 q 0,-1.40748 -0.49,-2.37203 -0.49075,-0.96454 -1.463017,-1.51857 -0.707597,-0.40204 -1.50315,-0.5556 -0.795551,-0.16049 -1.905179,-0.16049 h -1.494657 v 9.23649 h 1.494657 q 1.149745,0 2.001624,-0.16977 0.860386,-0.16821 1.575688,-0.62656 0.892014,-0.571 1.334164,-1.50315 0.44987,-0.93212 0.44987,-2.33033 z"
     aria-label="D"
     font-weight="400"
     font-size="21.333px"
     font-family="sans-serif"
     letter-spacing="0"
     word-spacing="0"
     fill="#000000"
     id="path1982"
     style="stroke-width:0.771637" />
  <path
     d="m 131.33815,226.0726 a 10.839192,10.839192 0 0 1 -10.81297,10.8392 10.839192,10.839192 0 0 1 -10.8662,-10.78596 10.839192,10.839192 0 0 1 10.75895,-10.89243 10.839192,10.839192 0 0 1 10.91868,10.73271"
     fill="#ffffff"
     stroke="#000000"
     stroke-width="1.23"
     id="path1984" />
  <path
     d="m 124.07705,220.68349 h -6.05272 v 3.37592 h 5.20081 v 1.4144 h -5.20081 v 5.76336 h -1.5919 v -11.9681 h 7.64462 z"
     aria-label="F"
     font-weight="400"
     font-size="21.333px"
     font-family="sans-serif"
     letter-spacing="0"
     word-spacing="0"
     fill="#000000"
     id="path1986"
     style="stroke-width:0.771637" />
  <path
     d="m 156.58844,226.0726 a 10.839192,10.839192 0 0 1 -10.81296,10.8392 10.839192,10.839192 0 0 1 -10.86619,-10.78596 10.839192,10.839192 0 0 1 10.75971,-10.89243 10.839192,10.839192 0 0 1 10.91867,10.73271"
     fill="#ffffff"
     stroke="#000000"
     stroke-width="1.23"
     id="path1988" />
  <path
     d="m 150.4408,230.35289 q -0.97997,0.45062 -2.14592,0.78783 -1.15746,0.32948 -2.24238,0.32948 -1.39899,0 -2.56415,-0.38581 -1.16517,-0.38582 -1.98543,-1.15745 -0.82796,-0.77937 -1.2786,-1.94453 -0.44986,-1.17443 -0.44986,-2.74164 0,-2.86972 1.67214,-4.52488 1.67985,-1.66441 4.6059,-1.66441 1.02011,0 2.0811,0.24923 1.06951,0.24153 2.29949,0.82797 v 1.88896 h -0.14507 q -0.24924,-0.19289 -0.72302,-0.50618 -0.47456,-0.31328 -0.93292,-0.5224 -0.55404,-0.24924 -1.26162,-0.40975 -0.69912,-0.16975 -1.59189,-0.16975 -2.00934,0 -3.183,1.2948 -1.16518,1.28632 -1.16518,3.48781 0,2.32339 1.22151,3.61743 1.22226,1.28633 3.32808,1.28633 0.77162,0 1.53554,-0.1528 0.77165,-0.15278 1.35036,-0.39352 v -2.93456 h -3.20768 v -1.39819 h 4.7826 z"
     aria-label="G"
     font-weight="400"
     font-size="21.333px"
     font-family="sans-serif"
     letter-spacing="0"
     word-spacing="0"
     fill="#000000"
     id="path1990"
     style="stroke-width:0.771637" />
  <path
     d="m 181.83874,226.0726 a 10.839192,10.839192 0 0 1 -10.81297,10.8392 10.839192,10.839192 0 0 1 -10.86543,-10.78596 10.839192,10.839192 0 0 1 10.75895,-10.89243 10.839192,10.839192 0 0 1 10.91868,10.73271"
     fill="#ffffff"
     stroke="#000000"
     stroke-width="1.23"
     id="path1992" />
  <path
     d="m 175.44958,231.33672 h -1.59189 v -5.85982 h -5.97247 v 5.85982 h -1.59113 v -11.9681 h 1.5919 v 4.69387 h 5.97247 v -4.69387 h 1.59112 z"
     aria-label="H"
     font-weight="400"
     font-size="21.333px"
     font-family="sans-serif"
     letter-spacing="0"
     word-spacing="0"
     fill="#000000"
     id="path1994"
     style="stroke-width:0.771637" />
  <path
     d="m 207.0898,226.0726 a 10.839192,10.839192 0 0 1 -10.81296,10.8392 10.839192,10.839192 0 0 1 -10.86619,-10.78596 10.839192,10.839192 0 0 1 10.75893,-10.89243 10.839192,10.839192 0 0 1 10.91867,10.73271"
     fill="#ffffff"
     stroke="#000000"
     stroke-width="1.23"
     id="path1996" />
  <path
     d="m 198.51537,228.12671 q 0,1.57489 -0.96455,2.42755 -0.95684,0.85189 -2.57186,0.85189 -0.38584,0 -1.02939,-0.0725 -0.64278,-0.0639 -1.07642,-0.1605 v -1.48693 h 0.088 q 0.32948,0.11189 0.81174,0.23304 0.48231,0.12037 0.98926,0.12037 0.73924,0 1.17288,-0.169 0.44216,-0.169 0.65127,-0.48228 0.21682,-0.32099 0.27316,-0.78706 0.0648,-0.46684 0.0648,-1.0772 v -6.98564 h -2.53251 v -1.26935 h 4.12364 z"
     aria-label="J"
     font-weight="400"
     font-size="21.333px"
     font-family="sans-serif"
     letter-spacing="0"
     word-spacing="0"
     fill="#000000"
     id="path1998"
     style="stroke-width:0.771637" />
  <path
     d="m 231.85396,226.0726 a 10.839192,10.839192 0 0 1 -10.81218,10.8392 10.839192,10.839192 0 0 1 -10.86619,-10.78596 10.839192,10.839192 0 0 1 10.75893,-10.89243 10.839192,10.839192 0 0 1 10.91867,10.73271"
     fill="#ffffff"
     stroke="#000000"
     stroke-width="1.23"
     id="path2000" />
  <path
     d="m 226.0852,231.41389 h -2.06567 l -4.73478,-5.32893 -1.18908,1.27011 v 4.05882 h -1.59189 v -11.96812 h 1.59189 v 6.24487 l 5.81119,-6.24487 h 1.9291 l -5.34514,5.62603 z"
     aria-label="K"
     font-weight="400"
     font-size="21.333px"
     font-family="sans-serif"
     letter-spacing="0"
     word-spacing="0"
     fill="#000000"
     id="path2002"
     style="stroke-width:0.771637" />
  <path
     d="m 256.61889,226.0726 a 10.839192,10.839192 0 0 1 -10.81219,10.8392 10.839192,10.839192 0 0 1 -10.8662,-10.78596 10.839192,10.839192 0 0 1 10.75895,-10.89243 10.839192,10.839192 0 0 1 10.91867,10.73271"
     fill="#ffffff"
     stroke="#000000"
     stroke-width="1.23"
     id="path2004" />
  <path
     d="m 250.25751,231.23717 h -7.57208 v -11.9681 h 1.5919 v 10.55368 h 5.98018 z"
     aria-label="L"
     font-weight="400"
     font-size="21.333px"
     font-family="sans-serif"
     letter-spacing="0"
     word-spacing="0"
     fill="#000000"
     id="path2006"
     style="stroke-width:0.771637" />
  <path
     d="m 68.719761,248.70936 a 10.839192,10.839192 0 0 1 -10.812954,10.8392 10.839192,10.839192 0 0 1 -10.8662,-10.78596 10.839192,10.839192 0 0 1 10.759712,-10.89243 10.839192,10.839192 0 0 1 10.91867,10.73193"
     fill="#ffffff"
     stroke="#000000"
     stroke-width="1.23"
     id="path2008" />
  <path
     d="m 62.151583,253.87315 h -9.3399 v -1.47844 l 7.338273,-9.07447 h -7.065113 v -1.41518 h 8.890807 v 1.43911 l -7.410807,9.11458 h 7.587511 z"
     aria-label="Z"
     font-weight="400"
     font-size="21.333px"
     font-family="sans-serif"
     letter-spacing="0"
     word-spacing="0"
     fill="#000000"
     id="path2010"
     style="stroke-width:0.771637" />
  <path
     d="M 93.970049,248.70936 A 10.839192,10.839192 0 0 1 83.157098,259.54856 10.839192,10.839192 0 0 1 72.291672,248.7626 10.839192,10.839192 0 0 1 83.050613,237.87017 10.839192,10.839192 0 0 1 93.96928,248.6021"
     fill="#ffffff"
     stroke="#000000"
     stroke-width="1.23"
     id="path2012" />
  <path
     d="m 88.195891,241.90506 -4.131347,5.91614 4.123631,6.05272 h -1.840354 l -3.264027,-4.92765 -3.343506,4.92765 h -1.736185 l 4.172245,-5.98019 -4.075788,-5.9879 h 1.832638 l 3.22313,4.8621 3.295664,-4.86287 z"
     aria-label="X"
     font-weight="400"
     font-size="21.333px"
     font-family="sans-serif"
     letter-spacing="0"
     word-spacing="0"
     fill="#000000"
     id="path2014"
     style="stroke-width:0.771637" />
  <path
     d="m 118.735,248.70936 a 10.839192,10.839192 0 0 1 -10.81296,10.8392 10.839192,10.839192 0 0 1 -10.865441,-10.78596 10.839192,10.839192 0 0 1 10.758951,-10.89243 10.839192,10.839192 0 0 1 10.91868,10.73193"
     fill="#ffffff"
     stroke="#000000"
     stroke-width="1.23"
     id="path2016" />
  <path
     d="m 112.10278,253.00584 q -0.44216,0.1929 -0.80406,0.36113 -0.35342,0.16897 -0.93215,0.35418 -0.49075,0.15277 -1.06947,0.25695 -0.57103,0.11267 -1.26163,0.11267 -1.30174,0 -2.37124,-0.36191 -1.06101,-0.37038 -1.84886,-1.14974 -0.77162,-0.76393 -1.20529,-1.93681 -0.43442,-1.18137 -0.43442,-2.74086 0,-1.47923 0.41821,-2.6444 0.41823,-1.16516 1.20532,-1.96923 0.76391,-0.77933 1.8411,-1.18985 1.08492,-0.40974 2.4029,-0.40974 0.96453,0 1.92138,0.23303 0.96453,0.23304 2.13744,0.81948 v 1.88898 h -0.11962 q -0.98924,-0.82797 -1.96151,-1.2053 -0.97225,-0.37811 -2.08188,-0.37811 -0.90821,0 -1.63972,0.29786 -0.72302,0.28935 -1.29404,0.90821 -0.55481,0.60265 -0.86809,1.52707 -0.30556,0.91594 -0.30556,2.122 0,1.26163 0.33796,2.16985 0.3457,0.90898 0.88353,1.47923 0.5633,0.59415 1.31025,0.88429 0.7562,0.28165 1.59187,0.28165 1.14975,0 2.15442,-0.39352 1.00469,-0.39432 1.88048,-1.18217 h 0.11268 z"
     aria-label="C"
     font-weight="400"
     font-size="21.333px"
     font-family="sans-serif"
     letter-spacing="0"
     word-spacing="0"
     fill="#000000"
     id="path2018"
     style="stroke-width:0.771637" />
  <path
     d="m 143.49992,248.70936 a 10.839192,10.839192 0 0 1 -10.81295,10.8392 10.839192,10.839192 0 0 1 -10.86543,-10.78596 10.839192,10.839192 0 0 1 10.75894,-10.89243 10.839192,10.839192 0 0 1 10.91868,10.73193"
     fill="#ffffff"
     stroke="#000000"
     stroke-width="1.23"
     id="path2020" />
  <path
     d="m 138.03133,241.90506 -4.3559,11.96809 h -2.12201 l -4.35665,-11.96809 h 1.70377 l 3.75401,10.52976 3.75325,-10.52976 z"
     aria-label="V"
     font-weight="400"
     font-size="21.333px"
     font-family="sans-serif"
     letter-spacing="0"
     word-spacing="0"
     fill="#000000"
     id="path2022"
     style="stroke-width:0.771637" />
  <path
     d="m 168.75021,248.70936 a 10.839192,10.839192 0 0 1 -10.81217,10.8392 10.839192,10.839192 0 0 1 -10.8662,-10.78596 10.839192,10.839192 0 0 1 10.75894,-10.89243 10.839192,10.839192 0 0 1 10.91866,10.73193"
     fill="#ffffff"
     stroke="#000000"
     stroke-width="1.23"
     id="path2024" />
  <path
     d="m 162.95831,250.19244 q 0,0.89201 -0.33799,1.57492 -0.3372,0.68367 -0.9082,1.12582 -0.67519,0.53011 -1.48696,0.75544 -0.80328,0.2253 -2.04946,0.2253 h -4.244 v -11.96809 h 3.5449 q 1.31023,0 1.96072,0.0957 0.65127,0.0965 1.24618,0.40126 0.65899,0.34647 0.95684,0.89278 0.29711,0.53862 0.29711,1.29404 0,0.85189 -0.43367,1.45531 -0.43444,0.59416 -1.15747,0.95683 v 0.0639 q 1.21301,0.24849 1.91288,1.06872 0.69912,0.81177 0.69912,2.05797 z m -2.67681,-5.39373 q 0,-0.43367 -0.14429,-0.73152 -0.14508,-0.29706 -0.46608,-0.48227 -0.3781,-0.21684 -0.91671,-0.26545 -0.53859,-0.0555 -1.33492,-0.0555 h -1.89669 v 3.45615 h 2.05794 q 0.74773,0 1.18988,-0.0724 0.44214,-0.0801 0.81948,-0.32177 0.37811,-0.24076 0.53089,-0.61886 0.1605,-0.38582 0.1605,-0.90821 z m 1.02088,5.45779 q 0,-0.72303 -0.21683,-1.14974 -0.21684,-0.42594 -0.78785,-0.72304 -0.38582,-0.20061 -0.94063,-0.25694 -0.54632,-0.0649 -1.33417,-0.0649 h -2.50009 v 4.45313 h 2.10657 q 1.0448,0 1.71148,-0.10417 0.66748,-0.11266 1.09342,-0.40203 0.44986,-0.31327 0.65897,-0.71531 0.20913,-0.40203 0.20913,-1.03708 z"
     aria-label="B"
     font-weight="400"
     font-size="21.333px"
     font-family="sans-serif"
     letter-spacing="0"
     word-spacing="0"
     fill="#000000"
     id="path2026"
     style="stroke-width:0.771637" />
  <path
     d="m 194.00129,248.70936 a 10.839192,10.839192 0 0 1 -10.81297,10.8392 10.839192,10.839192 0 0 1 -10.8662,-10.78596 10.839192,10.839192 0 0 1 10.75972,-10.89243 10.839192,10.839192 0 0 1 10.91867,10.73193"
     fill="#ffffff"
     stroke="#000000"
     stroke-width="1.23"
     id="path2028" />
  <path
     d="m 187.58742,253.97346 h -1.96921 L 179.9436,243.267 v 10.70646 h -1.48696 v -11.96808 h 2.4677 l 5.17614,9.77356 v -9.77433 h 1.48694 z"
     aria-label="N"
     font-weight="400"
     font-size="21.333px"
     font-family="sans-serif"
     letter-spacing="0"
     word-spacing="0"
     fill="#000000"
     id="path2030"
     style="stroke-width:0.771637" />
  <path
     d="m 219.25158,248.70936 a 10.839192,10.839192 0 0 1 -10.81297,10.8392 10.839192,10.839192 0 0 1 -10.86541,-10.78596 10.839192,10.839192 0 0 1 10.75893,-10.89243 10.839192,10.839192 0 0 1 10.91867,10.73193"
     fill="#ffffff"
     stroke="#000000"
     stroke-width="1.23"
     id="path2032" />
  <path
     d="m 214.03454,253.87392 h -1.59189 v -10.31293 l -3.32808,7.01728 h -0.94833 l -3.30338,-7.01728 v 10.31293 h -1.48696 v -11.96809 h 2.16986 l 3.19147,6.66308 3.08656,-6.66385 h 2.20999 z"
     aria-label="M"
     font-weight="400"
     font-size="21.333px"
     font-family="sans-serif"
     letter-spacing="0"
     word-spacing="0"
     fill="#000000"
     id="path2034"
     style="stroke-width:0.771637" />
  <text
     xml:space="preserve"
     style="fill:#000000"
     x="251.37645"
     y="156.62415"
     id="text2976"><tspan
       sodipodi:role="line"
       id="tspan2974"
       x="251.37645"
       y="156.62415">Backspace</tspan></text>
  <text
     xml:space="preserve"
     style="fill:#000000"
     x="28.991379"
     y="181.72644"
     id="text3112"><tspan
       sodipodi:role="line"
       id="tspan3110"
       x="28.991379"
       y="181.72644">1</tspan></text>
  <text
     xml:space="preserve"
     style="fill:#000000"
     x="54.44722"
     y="181.72644"
     id="text3116"><tspan
       sodipodi:role="line"
       id="tspan3114"
       x="54.44722"
       y="181.72644">2</tspan></text>
  <text
     xml:space="preserve"
     style="fill:#000000"
     x="79.549515"
     y="181.72644"
     id="text3120"><tspan
       sodipodi:role="line"
       id="tspan3118"
       x="79.549515"
       y="181.72644">3</tspan></text>
  <text
     xml:space="preserve"
     style="fill:#000000"
     x="104.29824"
     y="181.37289"
     id="text3124"><tspan
       sodipodi:role="line"
       id="tspan3122"
       x="104.29824"
       y="181.37289">4</tspan></text>
  <text
     xml:space="preserve"
     style="fill:#000000"
     x="129.40054"
     y="181.37288"
     id="text3128"><tspan
       sodipodi:role="line"
       id="tspan3126"
       x="129.40054"
       y="181.37288">5</tspan></text>
  <text
     xml:space="preserve"
     style="fill:#000000"
     x="154.50282"
     y="181.72646"
     id="text3132"><tspan
       sodipodi:role="line"
       id="tspan3130"
       x="154.50282"
       y="181.72646">6</tspan></text>
  <text
     xml:space="preserve"
     style="fill:#000000"
     x="179.95868"
     y="181.37288"
     id="text3136"><tspan
       sodipodi:role="line"
       id="tspan3134"
       x="179.95868"
       y="181.37288">7</tspan></text>
  <text
     xml:space="preserve"
     style="fill:#000000"
     x="204.70741"
     y="181.37289"
     id="text3140"><tspan
       sodipodi:role="line"
       id="tspan3138"
       x="204.70741"
       y="181.37289">8</tspan></text>
  <path
     d="m 143.2653,152.7352 a 10.839192,10.839192 0 0 1 -10.81297,10.8392 10.839192,10.839192 0 0 1 -10.86542,-10.78596 10.839192,10.839192 0 0 1 10.75895,-10.89244 10.839192,10.839192 0 0 1 10.91867,10.73271"
     fill="#ffffff"
     stroke="#000000"
     stroke-width="1.23"
     id="path1948-9-7" />
  <path
     d="m 168.51559,152.7352 a 10.839192,10.839192 0 0 1 -10.81219,10.8392 10.839192,10.839192 0 0 1 -10.86619,-10.78596 10.839192,10.839192 0 0 1 10.75894,-10.89244 10.839192,10.839192 0 0 1 10.91867,10.73271"
     fill="#ffffff"
     stroke="#000000"
     stroke-width="1.23"
     id="path1952-8-7" />
  <path
     d="m 193.76666,152.7352 a 10.839192,10.839192 0 0 1 -10.81295,10.8392 10.839192,10.839192 0 0 1 -10.8662,-10.78596 10.839192,10.839192 0 0 1 10.75971,-10.89244 10.839192,10.839192 0 0 1 10.91866,10.73271"
     fill="#ffffff"
     stroke="#000000"
     stroke-width="1.23"
     id="path1956-4-4" />
  <path
     d="m 218.53159,152.7352 a 10.839192,10.839192 0 0 1 -10.81296,10.8392 10.839192,10.839192 0 0 1 -10.8662,-10.78596 10.839192,10.839192 0 0 1 10.75971,-10.89244 10.839192,10.839192 0 0 1 10.91868,10.73271"
     fill="#ffffff"
     stroke="#000000"
     stroke-width="1.23"
     id="path1960-9-7" />
  <text
     xml:space="preserve"
     style="fill:#000000"
     x="127.2678"
     y="156.91986"
     id="text3128-9"><tspan
       sodipodi:role="line"
       id="tspan3126-1"
       x="127.2678"
       y="156.91986">&lt;</tspan></text>
  <text
     xml:space="preserve"
     style="fill:#000000"
     x="28.942963"
     y="156.29945"
     id="text3128-9-3"><tspan
       sodipodi:role="line"
       id="tspan3126-1-3"
       x="28.942963"
       y="156.29945">`</tspan></text>
  <text
     xml:space="preserve"
     style="fill:#000000"
     x="76.672661"
     y="156.29944"
     id="text3128-9-5"><tspan
       sodipodi:role="line"
       id="tspan3126-1-1"
       x="76.672661"
       y="156.29944">Fn</tspan></text>
  <text
     xml:space="preserve"
     style="fill:#000000"
     x="154.13785"
     y="156.56633"
     id="text3132-3"><tspan
       sodipodi:role="line"
       id="tspan3130-5"
       x="154.13785"
       y="156.56633">v</tspan></text>
  <text
     xml:space="preserve"
     style="fill:#000000"
     x="178.53305"
     y="159.04118"
     id="text3136-5"><tspan
       sodipodi:role="line"
       id="tspan3134-9"
       x="178.53305"
       y="159.04118">^</tspan></text>
  <text
     xml:space="preserve"
     style="fill:#000000"
     x="203.63533"
     y="156.91988"
     id="text3140-9"><tspan
       sodipodi:role="line"
       id="tspan3138-4"
       x="203.63533"
       y="156.91988">&gt;</tspan></text>
  <text
     xml:space="preserve"
     style="fill:#000000"
     x="229.80971"
     y="181.37289"
     id="text3144"><tspan
       sodipodi:role="line"
       id="tspan3142"
       x="229.80971"
       y="181.37289">9</tspan></text>
  <text
     xml:space="preserve"
     style="fill:#000000"
     x="254.55844"
     y="181.37289"
     id="text3148"><tspan
       sodipodi:role="line"
       id="tspan3146"
       x="254.55844"
       y="181.37289">0</tspan></text>
  <text
     xml:space="preserve"
     style="fill:#000000"
     x="281.42853"
     y="181.37289"
     id="text3152"><tspan
       sodipodi:role="line"
       id="tspan3150"
       x="281.42853"
       y="181.37289">-</tspan></text>
  <text
     xml:space="preserve"
     style="fill:#000000"
     x="303.70236"
     y="180.66577"
     id="text3156"><tspan
       sodipodi:role="line"
       id="tspan3154"
       x="303.70236"
       y="180.66577">=</tspan></text>
  <text
     xml:space="preserve"
     style="fill:#000000"
     x="281.42853"
     y="206.47519"
     id="text3160"><tspan
       sodipodi:role="line"
       id="tspan3158"
       x="281.42853"
       y="206.47519">[</tspan></text>
  <text
     xml:space="preserve"
     style="fill:#000000"
     x="306.17722"
     y="206.47519"
     id="text3164"><tspan
       sodipodi:role="line"
       id="tspan3162"
       x="306.17722"
       y="206.47519">]</tspan></text>
  <text
     xml:space="preserve"
     style="fill:#000000"
     x="269.05411"
     y="229.10258"
     id="text3168"><tspan
       sodipodi:role="line"
       id="tspan3166"
       x="269.05411"
       y="229.10258">;</tspan></text>
  <text
     xml:space="preserve"
     style="fill:#000000"
     x="231.22392"
     y="252.79068"
     id="text3176"><tspan
       sodipodi:role="line"
       id="tspan3174"
       x="231.22392"
       y="252.79068">,</tspan></text>
  <text
     xml:space="preserve"
     style="fill:#000000"
     x="257.03333"
     y="253.85133"
     id="text3180"><tspan
       id="tspan3178"
       x="257.03333"
       y="253.85133"
       sodipodi:role="line">.</tspan></text>
  <text
     xml:space="preserve"
     style="fill:#000000"
     x="280.72141"
     y="252.79068"
     id="text3184"><tspan
       sodipodi:role="line"
       id="tspan3182"
       x="280.72141"
       y="252.79068">/</tspan></text>
  <text
     xml:space="preserve"
     style="fill:#000000"
     x="294.86353"
     y="230.51682"
     id="text3188"><tspan
       sodipodi:role="line"
       id="tspan3186"
       x="294.86353"
       y="230.51682">'</tspan></text>
</svg>
